<svg xmlns="http://www.w3.org/2000/svg" xmlns:xlink="http://www.w3.org/1999/xlink" width="805" height="408" xmlns:v="https://vecta.io/nano"><style><![CDATA[.Ao{fill:#fff}.Ap{fill:#f0c7b7}.Aq{fill:#844747}.Ar{fill:#515051}.As{fill:#ad7c6f}.At{fill:#e0e0e0}.Au{fill:#f08a21}.Av{fill:#ffc31a}.Aw{fill:#773e3e}.Ax{fill:#282828}.Ay{fill:#48cfad}.Az{fill:#e5f0f3}.BA{fill:#e2bbaf}.BB{fill:#5990b6}.BC{fill:#ededed}.BD{stroke-miterlimit:10}.BE{fill:#0c86f4}.BF{fill:#e44c3b}.BG{fill:#a0d468}.BH{fill:#965353}.BI{fill:#2ecc72}.BJ{fill:#fdac5c}.BK{fill:#b3b4b6}.BL{fill:#39b54a}.BM{fill:#ffce54}.BN{fill:#37bc9b}.BO{fill:#ac92ec}.BP{fill:#194866}.BQ{fill:#4d4d4d}.BR{fill:#2b2b2b}]]></style><path d="M648.7 337.4h-542c-2.8 0-5-2.3-5-5v-286c0-2.8 2.3-5 5-5h542c2.8 0 5 2.3 5 5v286c0 2.7-2.3 5-5 5z" class="Ao"/><path d="M653.7 54.4V33.1c0-2.8-2.3-5-5-5h-542c-2.8 0-5 2.3-5 5v21.3h552z" fill="#7497d1"/><path d="M603.7 41.2c0 3.1-2.5 5.7-5.7 5.7-3.1 0-5.7-2.5-5.7-5.7 0-3.1 2.5-5.7 5.7-5.7s5.7 2.6 5.7 5.7z" class="BI"/><path d="M622.9 41.2c0 3.1-2.5 5.7-5.7 5.7-3.1 0-5.7-2.5-5.7-5.7 0-3.1 2.5-5.7 5.7-5.7s5.7 2.6 5.7 5.7z" fill="#f0c20f"/><path d="M642.2 41.2c0 3.1-2.5 5.7-5.7 5.7-3.1 0-5.7-2.5-5.7-5.7 0-3.1 2.5-5.7 5.7-5.7 3.1 0 5.7 2.6 5.7 5.7z" fill="#ed6a5e"/><path d="M295.1 184.2c-1.9 0-3.9-.5-3.9-1.8V65c0-1.4 2-1.8 3.9-1.8h336.7c1.9 0 3.9.5 3.9 1.8v117.3c0 1.4-2 1.8-3.9 1.8H295.1z" class="Ao"/><path d="M631.8 63.9c1.8 0 3.2.5 3.2 1.1v117.3c0 .6-1.4 1.1-3.2 1.1H295.1c-1.8 0-3.2-.5-3.2-1.1V65c0-.6 1.4-1.1 3.2-1.1h336.7m0-1.4H295.1c-2.9 0-4.7 1-4.7 2.6v117.3c0 1.6 1.7 2.6 4.7 2.6h336.7c2.9 0 4.7-1 4.7-2.6V65c-.1-1.6-1.8-2.5-4.7-2.5h0z" class="BC"/><path d="M318.1 96.4h-4.6-8.5V77.7h2.3c.1.8.9 1.4 1.7 1.4h5.4c.9 0 1.6-.6 1.7-1.4h2 0v2c0 .7.6 1.3 1.3 1.3s1.3-.6 1.3-1.3v-.6-1.4-.9a1.79 1.79 0 0 0-1.8-1.8H314c0-1.4-1.1-2.5-2.5-2.5S309 73.6 309 75h-4.9a1.79 1.79 0 0 0-1.8 1.8v20.5a1.79 1.79 0 0 0 1.8 1.8H319a1.79 1.79 0 0 0 1.8-1.8v-.9h-2.7 0zM311.6 74a1.11 1.11 0 0 1 1.1 1.1 1.11 1.11 0 0 1-1.1 1.1 1.11 1.11 0 0 1-1.1-1.1 1.11 1.11 0 0 1 1.1-1.1z" class="BJ"/><path d="M325.8 88.7a6.49 6.49 0 1 0-13 0 6.49 6.49 0 0 0 6.5 6.5c3.6-.1 6.5-3 6.5-6.5zm-3.4-2.3l-2.9 5.8c-.2.3-.4.5-.8.5h-.1c-.3 0-.6-.1-.8-.4L316 90c-.3-.4-.3-1 .2-1.4.4-.3 1-.3 1.4.2l.8 1.1 2.2-4.4c.2-.5.8-.7 1.3-.4.6.2.8.8.5 1.3z" class="BB"/><path d="M307.2 85.5h3.2v-3.2h-3.2v3.2zm.9-2.2h1.4v1.4h-1.4v-1.4zm-.9 6.9h3.2V87h-3.2v3.2zm.9-2.3h1.4v1.4h-1.4v-1.4zm-.9 6.9h3.2v-3.2h-3.2v3.2zm.9-2.3h1.4v1.4h-1.4v-1.4z" class="BK"/><path d="M332.9 87.4h256.4v2.2H332.9zm0 7.1h256.4v2.2H332.9z" class="At"/><g class="Ar"><path d="M333.7 75.5h1.9c.9 0 1.6.1 2 .4s.6.7.6 1.2a1.69 1.69 0 0 1-.3 1c-.2.3-.5.4-.8.5h0c.5.1.8.3 1 .5a1.69 1.69 0 0 1 .3 1c0 .6-.2 1-.6 1.4-.4.3-1 .5-1.7.5h-2.4v-6.5zm1.1 2.7h1c.4 0 .8-.1 1-.2s.3-.4.3-.7-.1-.5-.3-.7c-.2-.1-.6-.2-1.1-.2h-.9v1.8zm0 .8v2.1h1.1c.4 0 .8-.1 1-.3s.3-.4.3-.8c0-.3-.1-.6-.3-.8s-.6-.2-1.1-.2h-1zm7.4-2h.5l-.1 1c-.1 0-.3-.1-.5-.1-.4 0-.8.1-1 .4-.3.3-.4.6-.4 1.1V82h-1.1v-4.9h.8l.1.9h.1c.2-.3.4-.5.6-.7.4-.3.7-.3 1-.3zm4.5 5l-.2-.7h0c-.2.3-.5.5-.7.6a2.39 2.39 0 0 1-.9.2c-.5 0-.9-.1-1.1-.4-.3-.3-.4-.6-.4-1.1s.2-.9.6-1.2 1-.4 1.7-.4h.9v-.3c0-.3-.1-.6-.2-.7-.1-.2-.4-.2-.7-.2s-.5 0-.7.1-.5.2-.7.3l-.3-.8.9-.3c.3-.1.6-.1.9-.1.6 0 1.1.1 1.4.4s.5.7.5 1.3V82h-1zm-1.6-.7c.4 0 .7-.1.9-.3s.3-.5.3-.9v-.4h-.6c-.5 0-.9.1-1.1.2s-.3.4-.3.7c0 .2.1.4.2.5.2.1.4.2.6.2zm8.2.7h-1.1v-3c0-.4-.1-.7-.2-.9-.2-.2-.4-.3-.7-.3-.4 0-.8.1-1 .4s-.3.7-.3 1.3V82h-1.1v-4.9h.8l.1.6h.1c.1-.2.4-.4.6-.5.3-.1.6-.2.9-.2 1.2 0 1.8.6 1.8 1.8V82zm3.1.1c-.6 0-1.1-.2-1.4-.7-.3-.4-.5-1.1-.5-1.9s.2-1.4.5-1.9c.4-.5.8-.7 1.5-.7.6 0 1.1.2 1.5.7h.1c-.1-.4-.1-.6-.1-.8V75h1.1v7h-.8l-.2-.6h0c-.5.4-1 .7-1.7.7zm.3-.9c.4 0 .7-.1.9-.4.2-.2.3-.6.3-1.2v-.1c0-.6-.1-1.1-.3-1.3s-.5-.4-1-.4c-.4 0-.7.1-.9.4s-.3.7-.3 1.3c0 .5.1 1 .3 1.3s.6.4 1 .4zm11.7.8h-1.3l-3.2-5.2h0v.3c0 .6.1 1.1.1 1.5V82h-1v-6.5h1.3l3.2 5.2h0V80v-1-3.4h1V82z"/><use xlink:href="#C"/><use xlink:href="#D"/><path d="M387.5 82h-1.1v-5.6h-1.9v-.9h4.9v.9h-1.9V82zm5.9 0l-.2-.7h0c-.2.3-.5.5-.7.6a2.39 2.39 0 0 1-.9.2c-.5 0-.9-.1-1.1-.4-.3-.3-.4-.6-.4-1.1s.2-.9.6-1.2 1-.4 1.7-.4h.9v-.3c0-.3-.1-.6-.2-.7-.1-.2-.4-.2-.7-.2s-.5 0-.7.1-.5.2-.7.3l-.3-.8.9-.3c.3-.1.6-.1.9-.1.6 0 1.1.1 1.4.4s.5.7.5 1.3V82h-1zm-1.5-.7c.4 0 .7-.1.9-.3s.3-.5.3-.9v-.4h-.6c-.5 0-.9.1-1.1.2s-.3.4-.3.7c0 .2.1.4.2.5s.3.2.6.2z"/><use xlink:href="#E"/><path d="M401.1 79.4l.6-.7 1.5-1.6h1.2l-2 2.1 2.1 2.8h-1.2l-1.6-2.2-.6.5V82h-1v-7h1v3.4 1h0zm9.4 2.6h-1.1v-4.2-1.2c-.1.1-.2.2-.3.2-.1.1-.4.4-1 .8l-.5-.7 1.9-1.5h.9V82z"/></g><ellipse cx="609.6" cy="85.8" rx="13.3" ry="13.2" class="BL"/><use xlink:href="#F" class="Ao"/><path d="M317.6 134.4h-4.4-8.2v-18h2.2c.1.8.8 1.4 1.7 1.4h5.2c.8 0 1.5-.6 1.7-1.4h1.9 0v1.9c0 .7.6 1.3 1.3 1.3s1.3-.6 1.3-1.3v-.6-1.3-.9c0-.9-.8-1.7-1.7-1.7h-4.8c0-1.3-1.1-2.4-2.4-2.4s-2.4 1.1-2.4 2.4h-4.8c-.9 0-1.7.8-1.7 1.7v19.7c0 .9.8 1.7 1.7 1.7h14.3c.9 0 1.7-.8 1.7-1.7v-.8h-2.6 0zm-6.3-21.6a1.11 1.11 0 0 1 1.1 1.1 1.11 1.11 0 0 1-1.1 1.1 1.11 1.11 0 0 1-1.1-1.1 1.11 1.11 0 0 1 1.1-1.1z" class="BJ"/><path d="M325 126.9c0-3.4-2.8-6.2-6.2-6.2s-6.2 2.8-6.2 6.2 2.8 6.2 6.2 6.2 6.2-2.7 6.2-6.2zm-3.3-2.2l-2.8 5.6c-.1.3-.4.5-.7.5h-.1c-.3 0-.6-.1-.7-.4l-1.7-2.2a.95.95 0 0 1 .2-1.3.95.95 0 0 1 1.3.2l.8 1 2.1-4.2c.2-.5.8-.7 1.3-.4.4.2.5.8.3 1.2z" class="BB"/><g class="BK"><use xlink:href="#G"/><use xlink:href="#G" y="4.5"/><use xlink:href="#G" y="9"/></g><path d="M332.9 125.8h256.4v2.2H332.9zm0 7.1h256.4v2.2H332.9z" class="At"/><g class="Ar"><use xlink:href="#H"/><use xlink:href="#I"/><path d="M346.7 120.4l-.2-.7h0c-.2.3-.5.5-.7.6a2.39 2.39 0 0 1-.9.2c-.5 0-.9-.1-1.1-.4-.3-.3-.4-.6-.4-1.1s.2-.9.6-1.2 1-.4 1.7-.4h.9v-.3c0-.3-.1-.6-.2-.7-.1-.2-.4-.2-.7-.2s-.5 0-.7.1-.5.2-.7.3l-.3-.8.9-.3c.3-.1.6-.1.9-.1.6 0 1.1.1 1.4.4s.5.7.5 1.3v3.3h-1zm-1.6-.7c.4 0 .7-.1.9-.3s.3-.5.3-.9v-.5h-.6c-.5 0-.9.1-1.1.2s-.3.4-.3.7c0 .2.1.4.2.5.2.2.4.3.6.3z"/><use xlink:href="#J"/><path d="M356.4 120.5c-.6 0-1.1-.2-1.4-.7-.3-.4-.5-1.1-.5-1.9s.2-1.4.5-1.9c.4-.5.8-.7 1.5-.7.6 0 1.1.2 1.5.7h.1c-.1-.4-.1-.6-.1-.8v-1.8h1.1v7h-.8l-.2-.6h0c-.5.4-1 .7-1.7.7zm.3-.9c.4 0 .7-.1.9-.4.2-.2.3-.6.3-1.2v-.1c0-.6-.1-1.1-.3-1.3s-.5-.4-1-.4c-.4 0-.7.1-.9.4s-.3.7-.3 1.3c0 .5.1 1 .3 1.3s.6.4 1 .4z"/><use xlink:href="#K"/><path d="M372.2 120.5c-.8 0-1.4-.2-1.8-.7-.4-.4-.7-1.1-.7-1.9s.2-1.4.6-1.9 1-.7 1.7-.7 1.2.2 1.5.6c.4.4.6.9.6 1.6v.6h-3.3c0 .5.1.8.4 1.1.2.3.6.4 1 .4.3 0 .6 0 .8-.1s.5-.1.8-.3v.9l-.8.3c-.2 0-.5.1-.8.1zm-.2-4.4c-.3 0-.6.1-.8.3s-.3.5-.4.9h2.2c0-.4-.1-.7-.3-.9-.1-.2-.4-.3-.7-.3z"/><use xlink:href="#D" y="38.4"/><path d="M387.5 120.4h-1.1v-5.6h-1.9v-.9h4.9v.9h-1.9v5.6zm5.9 0l-.2-.7h0c-.2.3-.5.5-.7.6a2.39 2.39 0 0 1-.9.2c-.5 0-.9-.1-1.1-.4-.3-.3-.4-.6-.4-1.1s.2-.9.6-1.2 1-.4 1.7-.4h.9v-.3c0-.3-.1-.6-.2-.7-.1-.2-.4-.2-.7-.2s-.5 0-.7.1-.5.2-.7.3l-.3-.8.9-.3c.3-.1.6-.1.9-.1.6 0 1.1.1 1.4.4s.5.7.5 1.3v3.3h-1zm-1.5-.7c.4 0 .7-.1.9-.3s.3-.5.3-.9v-.5h-.6c-.5 0-.9.1-1.1.2s-.3.4-.3.7c0 .2.1.4.2.5.1.2.3.3.6.3z"/><use xlink:href="#E" y="38.4"/><path d="M401.1 117.8l.6-.7 1.5-1.6h1.2l-2 2.1 2.1 2.8h-1.2l-1.6-2.2-.6.5v1.7h-1v-7h1v3.4 1h0zm10.7 2.6h-4.4v-.8l1.7-1.7 1-1.1c.2-.2.3-.4.4-.6s.1-.4.1-.6c0-.3-.1-.5-.3-.7s-.4-.3-.7-.3c-.2 0-.5 0-.7.1s-.5.3-.8.5l-.6-.7c.4-.3.7-.5 1.1-.7.3-.1.7-.2 1.1-.2.6 0 1.1.2 1.5.5s.6.7.6 1.3c0 .3-.1.6-.2.8-.1.3-.3.5-.5.8s-.6.7-1.1 1.1l-1.1 1.1h0 3.1v1.2z"/></g><ellipse cx="609.6" cy="124.2" rx="13.3" ry="13.2" class="BL"/><use xlink:href="#F" y="38.4" class="Ao"/><path d="M317.9 173h-4.5-8.4v-18.4h2.3c.1.8.9 1.4 1.7 1.4h5.3c.8 0 1.6-.6 1.7-1.4h1.9 0v1.9c0 .7.6 1.3 1.3 1.3s1.3-.6 1.3-1.3v-.5-1.3-.9c0-1-.8-1.7-1.7-1.7H314c0-1.4-1.1-2.5-2.5-2.5s-2.5 1.1-2.5 2.5h-4.8c-1 0-1.7.8-1.7 1.7v20.1c0 1 .8 1.7 1.7 1.7h14.6c1 0 1.7-.8 1.7-1.7v-.9h-2.6 0zm-6.5-22a1.11 1.11 0 0 1 1.1 1.1 1.11 1.11 0 0 1-1.1 1.1 1.11 1.11 0 0 1-1.1-1.1c0-.7.5-1.1 1.1-1.1z" class="BJ"/><path d="M325.4 165.4a6.38 6.38 0 1 0-12.8 0c0 3.5 2.9 6.3 6.4 6.3 3.6 0 6.4-2.8 6.4-6.3zm-3.3-2.3l-2.8 5.7c-.1.3-.4.5-.8.5h-.1c-.3 0-.6-.1-.8-.4l-1.7-2.2a.95.95 0 0 1 .2-1.3.95.95 0 0 1 1.3.2l.8 1 2.2-4.3c.2-.5.8-.7 1.3-.4.4.2.6.8.4 1.2z" class="BB"/><path d="M307.1 162.3h3.1v-3.1h-3.1v3.1zm.9-2.2h1.4v1.4H308v-1.4zm-.9 6.8h3.1v-3.1h-3.1v3.1zm.9-2.3h1.4v1.4H308v-1.4zm-.9 6.8h3.1v-3.1h-3.1v3.1zm.9-2.2h1.4v1.4H308v-1.4z" class="BK"/><path d="M332.9 164.1h256.4v2.2H332.9zm0 7.1h256.4v2.2H332.9z" class="At"/><g class="Ar"><use xlink:href="#H" y="38.4"/><use xlink:href="#I" y="38.4"/><path d="M346.7 158.8l-.2-.7h0c-.2.3-.5.5-.7.6a2.39 2.39 0 0 1-.9.2c-.5 0-.9-.1-1.1-.4-.3-.3-.4-.6-.4-1.1s.2-.9.6-1.2 1-.4 1.7-.4h.9v-.3c0-.3-.1-.6-.2-.7-.1-.2-.4-.2-.7-.2s-.5 0-.7.1-.5.2-.7.3l-.3-.8.9-.3c.3-.1.6-.1.9-.1.6 0 1.1.1 1.4.4s.5.7.5 1.3v3.3h-1zm-1.6-.8c.4 0 .7-.1.9-.3s.3-.5.3-.9v-.4h-.6c-.5 0-.9.1-1.1.2s-.3.4-.3.7c0 .2.1.4.2.5.2.2.4.2.6.2z"/><use xlink:href="#J" y="38.4"/><path d="M356.4 158.8c-.6 0-1.1-.2-1.4-.7-.3-.4-.5-1.1-.5-1.9s.2-1.4.5-1.9c.4-.5.8-.7 1.5-.7.6 0 1.1.2 1.5.7h.1c-.1-.4-.1-.6-.1-.8v-1.8h1.1v7h-.8l-.2-.6h0a2.19 2.19 0 0 1-1.7.7zm.3-.8c.4 0 .7-.1.9-.4.2-.2.3-.6.3-1.2v-.1c0-.6-.1-1.1-.3-1.3s-.5-.4-1-.4c-.4 0-.7.1-.9.4s-.3.7-.3 1.3c0 .5.1 1 .3 1.3s.6.4 1 .4z"/><use xlink:href="#K" y="38.4"/><use xlink:href="#C" y="76.7"/><use xlink:href="#D" y="76.8"/><path d="M387.5 158.8h-1.1v-5.6h-1.9v-.9h4.9v.9h-1.9v5.6zm5.9 0l-.2-.7h0c-.2.3-.5.5-.7.6a2.39 2.39 0 0 1-.9.2c-.5 0-.9-.1-1.1-.4-.3-.3-.4-.6-.4-1.1s.2-.9.6-1.2 1-.4 1.7-.4h.9v-.3c0-.3-.1-.6-.2-.7-.1-.2-.4-.2-.7-.2s-.5 0-.7.1-.5.2-.7.3l-.3-.8.9-.3c.3-.1.6-.1.9-.1.6 0 1.1.1 1.4.4s.5.7.5 1.3v3.3h-1zm-1.5-.8c.4 0 .7-.1.9-.3s.3-.5.3-.9v-.4h-.6c-.5 0-.9.1-1.1.2s-.3.4-.3.7c0 .2.1.4.2.5.1.2.3.2.6.2zm7.1-.7c0 .5-.2.9-.5 1.1-.4.3-.9.4-1.5.4-.7 0-1.2-.1-1.6-.3v-.9c.6.3 1.1.4 1.6.4.6 0 1-.2 1-.6 0-.1 0-.2-.1-.3s-.2-.2-.4-.3-.4-.2-.7-.3c-.6-.2-1-.4-1.2-.7-.2-.2-.3-.5-.3-.9s.2-.8.5-1 .8-.4 1.4-.4a3.53 3.53 0 0 1 1.7.4l-.3.8c-.5-.2-1-.3-1.3-.3-.6 0-.8.2-.8.5 0 .2.1.3.2.4s.5.3.9.4l.9.4c.2.1.3.3.4.5 0 .3.1.5.1.7zm2.1-1.2l.6-.7 1.5-1.6h1.2l-2 2.1 2.1 2.8h-1.2l-1.6-2.2-.6.5v1.7h-1v-7h1v3.4 1h0zm10.5-2.4c0 .4-.1.8-.4 1-.2.3-.6.5-1 .6h0c.5.1.9.2 1.2.5s.4.6.4 1c0 .6-.2 1.1-.7 1.5s-1.1.5-1.9.5c-.7 0-1.3-.1-1.8-.4v-.9l.9.3c.3.1.6.1.9.1.5 0 .9-.1 1.1-.3s.4-.5.4-.9c0-.3-.1-.6-.4-.8s-.7-.2-1.3-.2h-.6v-.7h.6c1 0 1.6-.4 1.6-1.1 0-.3-.1-.5-.3-.6-.2-.2-.5-.2-.8-.2-.2 0-.5 0-.7.1s-.5.2-.8.4l-.5-.7c.6-.4 1.3-.7 2.1-.7.7 0 1.2.1 1.5.4.3.2.5.6.5 1.1z"/></g><ellipse cx="609.6" cy="162.6" rx="13.3" ry="13.2" class="BL"/><path d="M600.3 164.8l4.5-3 2.6 4.4s4.3-10 9.3-11.7c0 0-.9 5 .3 5.8 0 0-4.4 2.5-9.4 10.3 0 0-4.9-5.1-7.3-5.8zm-480.2 162c-2.4 0-4-.8-4-2V196.7c0-1.2 1.6-1.9 4-1.9h340.2c2.4 0 4 .8 4 1.9v128.1c0 1.2-1.6 2-4 2H120.1z" class="Ao"/><path d="M460.3 195.5c1.9 0 3.2.5 3.2 1.2v128.1c0 .7-1.4 1.2-3.2 1.2H120.1c-1.9 0-3.2-.5-3.2-1.2V196.7c0-.7 1.4-1.2 3.2-1.2h340.2m0-1.4H120.1c-2.9 0-4.7 1-4.7 2.7v128.1c0 1.6 1.8 2.7 4.7 2.7h340.2c2.9 0 4.7-1 4.7-2.7V196.7c0-1.6-1.8-2.6-4.7-2.6h0z" class="BC"/><path d="M530.1 223.6l1.5-1.7 2.9 2.7-1.5 1.7c0-.1-2.9-3-2.9-2.7z" fill="#304a56"/><path d="M493.5 225l-1.7-1.6-2.7 2.9 1.7 1.6 2.7-2.9z" fill="#33505e"/><path d="M492.5 222.7l-3.8 4.2c-.3.3-.7.3-1 0l-2-1.9c-.3-.3-.3-.7 0-1l3.8-4.2c.3-.3.7-.3 1 0l2 1.9c.2.3.3.7 0 1z" fill="#00bedd"/><path d="M512.2 211.6h-.8l.3 7.6h.1c1.1 0 2-1 2-2.1l-.2-4.2c0-.7-.7-1.3-1.4-1.3z" fill="#304a56"/><path d="M510.8 211.6c-.8 0-1.4.7-1.3 1.4l.2 4.2c0 1.1.9 1.9 2 2l-.3-7.6h-.6z" fill="#33505e"/><path d="M484.4 246.4c.6 15.7 13.8 27.9 29.4 27.3l-2.2-56.8c-15.7.6-27.8 13.8-27.2 29.5z" fill="#395a6d"/><path d="M511.5 216.9l2.2 56.8c15.6-.6 27.8-13.8 27.2-29.5s-13.7-27.9-29.4-27.3z" fill="#355363"/><path d="M501.8 229.2s10-6.6 19.9-1.1c8.4 4.7 10.7 9.3 12.8 16a21.77 21.77 0 0 0-22.7-20.7c-12.1.5-21.5 10.7-21 22.8.1 1.4.2 2.8.6 4.1-.7-5.8.5-14.2 10.4-21.1z" fill="#e3eaf0"/><path d="M521.7 228.2c-9.9-5.5-19.9 1.1-19.9 1.1-9.8 6.8-11 15.3-10.4 21.1 2.3 10 11.5 17.4 22.1 16.9 12.1-.5 21.5-10.7 21-22.8v-.3c-2.2-6.7-4.5-11.4-12.8-16z" class="Ao"/><path d="M531 221.2l4.2 3.9c.3.3.7.2 1 0l1.9-2c.3-.3.2-.7 0-1l-4.2-3.9c-.3-.3-.7-.2-1 0l-1.9 2c-.3.3-.3.8 0 1zm-14.4-13.9l-5.4.2.1 1.9 5.3-.2c1.1 0 2.1.8 2.1 2s-.8 2.1-2 2.1l-5.3.2.1 1.9 5.4-.2c1.9-.1 3.5-1.7 3.4-3.7v-.9c-.1-1.9-1.8-3.4-3.7-3.3z" fill="#02b3c6"/><path d="M506.1 213.7c-1.1 0-2.1-.8-2.1-2 0-1.1.8-2.1 2-2.1l5.3-.2-.1-1.9-5.4.2c-1.9.1-3.5 1.7-3.4 3.7v.9c.1 1.9 1.7 3.5 3.7 3.4l5.4-.2-.1-1.9-5.3.1z" fill="#00bedd"/><path d="M512.4 223.4h1v4.2h-1zm0 39.7h1v4.2h-1zm-21.7-18.4h4.2v1h-4.2zm39.7 0h4.2v1h-4.2zm-28-16.6l-1.2-1.9.5-.3 1.2 1.9zm-7.3 7.7l-1.7-1.5.4-.4 1.7 1.4zm27.8-7.7l-.5-.3 1.3-1.9.5.3zm7.3 7.7l-.3-.5 1.7-1.4.3.4zm-28.5 28.7l-.5-.3 1.2-1.9.5.4zm-7.9-7.9l-.4-.5 1.7-1.4.4.4zm29.9 7.9l-1.3-1.8.5-.4 1.3 1.9zm7.9-7.9l-1.7-1.5.3-.4 1.7 1.4z" class="BB"/><g class="BD"><path d="M552.8 245.8h0-1.4v16.5h75.4v-16.5h-37.7-16.9-5.5-3.5z" stroke="#e0e0e0" stroke-width=".482" class="Ao"/><path d="M612.8 245.9h-.3v16.5h14.3v-16.5h-11.9z" fill="#e4e4e4" stroke="#9e9e9f" stroke-width=".224"/></g><path d="M619.6 252.7h2.3c.3 0 .5.4.2.6l-1 1-1.3 1.3c-.1.1-.4.1-.5 0l-1.3-1.3-1-1c-.2-.2-.1-.6.2-.6h2.4z" fill="#888"/><g class="Ar"><path d="M570.3 255.2c0 .6-.2 1-.6 1.4-.4.3-1 .5-1.7.5s-1.3-.1-1.8-.3v-1l1 .3c.3.1.6.1.9.1.4 0 .7-.1.9-.2.2-.2.3-.4.3-.6s-.1-.5-.3-.6c-.2-.2-.6-.4-1.1-.6a3.22 3.22 0 0 1-1.3-.8c-.2-.3-.4-.7-.4-1.1 0-.5.2-1 .6-1.3s.9-.5 1.6-.5c.6 0 1.2.1 1.9.4l-.3.9c-.6-.2-1.1-.4-1.6-.4-.3 0-.6.1-.8.2-.2.2-.3.3-.3.6 0 .2 0 .3.1.4a1.38 1.38 0 0 0 .4.3l.9.4c.5.2.8.4 1.1.6s.4.4.5.6v.7z"/><use xlink:href="#L"/><path d="M578.2 257l-.2-.7h0c-.2.3-.5.5-.7.6a2.39 2.39 0 0 1-.9.2c-.5 0-.9-.1-1.1-.4-.3-.3-.4-.6-.4-1.1s.2-.9.6-1.2 1-.4 1.7-.4h.9v-.3c0-.3-.1-.6-.2-.7s-.4-.2-.7-.2-.5 0-.7.1-.5.2-.7.3l-.3-.8.9-.3c.3-.1.6-.1.9-.1.6 0 1.1.1 1.4.4s.5.7.5 1.3v3.3h-1zm-1.6-.7c.4 0 .7-.1.9-.3s.3-.5.3-.9v-.4h-.6c-.5 0-.9.1-1.1.2s-.3.4-.3.7c0 .2.1.4.2.5s.3.2.6.2z"/><use xlink:href="#I" x="240.7" y="136.7"/><use xlink:href="#L" x="12.9"/><path d="M590.1 257.1c-.8 0-1.4-.2-1.8-.7-.4-.4-.7-1.1-.7-1.9s.2-1.4.6-1.9 1-.7 1.7-.7 1.2.2 1.5.6c.4.4.6.9.6 1.6v.6h-3.3c0 .5.1.8.4 1.1.2.3.6.4 1 .4.3 0 .6 0 .8-.1.3-.1.5-.1.8-.3v.9l-.8.3c-.2.1-.5.1-.8.1zm-.2-4.3c-.3 0-.6.1-.8.3s-.3.5-.4.9h2.2c0-.4-.1-.7-.3-.9s-.4-.3-.7-.3zm5 4.3c-.6 0-1.1-.2-1.4-.7-.3-.4-.5-1.1-.5-1.9s.2-1.4.5-1.9c.4-.5.8-.7 1.5-.7s1.1.2 1.5.7h.1c-.1-.4-.1-.6-.1-.8V250h1.1v7h-.8l-.2-.6h0c-.6.5-1.1.7-1.7.7zm.3-.8c.4 0 .7-.1.9-.4.2-.2.3-.6.3-1.2v-.1c0-.6-.1-1.1-.3-1.3-.2-.3-.5-.4-1-.4-.4 0-.7.1-.9.4s-.3.7-.3 1.3c0 .5.1 1 .3 1.3.3.2.6.4 1 .4z"/></g><path d="M614.9 285.2H496.6a2.26 2.26 0 0 0-2.3 2.3v19a2.26 2.26 0 0 0 2.3 2.3h118.3a2.26 2.26 0 0 0 2.3-2.3v-19c0-1.2-1.1-2.3-2.3-2.3z" fill="#729ad5"/><g class="Ao"><path d="M506.8 294.2c-.7 0-1.3.3-1.8.8-.4.5-.6 1.3-.6 2.2 0 1 .2 1.7.6 2.2s1 .7 1.8.7c.3 0 .7 0 1-.1l1-.3v1.1c-.6.2-1.3.4-2.1.4-1.2 0-2-.4-2.7-1.1-.6-.7-.9-1.7-.9-3 0-.8.2-1.5.5-2.2.3-.6.7-1.1 1.3-1.4s1.2-.5 2-.5 1.6.2 2.2.5l-.5 1.1-.8-.3c-.3-.1-.7-.1-1-.1zm4.9 3.7v3.2h-1.3v-7.9h2.2c1 0 1.8.2 2.3.6s.7 1 .7 1.7c0 1-.5 1.7-1.5 2.1l2.2 3.5h-1.5l-1.9-3.2h-1.2zm0-1h.9c.6 0 1-.1 1.3-.3s.4-.6.4-1-.1-.8-.4-1-.7-.3-1.3-.3h-.9v2.6z"/><use xlink:href="#M"/><path d="M528.6 301.1l-.8-2.2h-3l-.8 2.2h-1.4l3-7.9h1.4l3 7.9h-1.4zm-1.1-3.3l-.7-2.2c-.1-.1-.1-.4-.2-.7s-.2-.5-.2-.7l-.4 1.5-.7 2.1h2.2zm6.3 3.3h-1.3v-6.8h-2.3v-1.1h6v1.1h-2.3v6.8z"/><use xlink:href="#M" x="19.8"/><path d="M549.1 301.1h-1.3v-6.8h-2.3v-1.1h6v1.1h-2.3v6.8zm3.6 0v-7.9h1.3v7.9h-1.3zm6.8 0l-2.3-6.6h0c.1 1 .1 1.9.1 2.8v3.8h-1.2v-7.9h1.8l2.2 6.3h0l2.3-6.3h1.8v7.9H563v-3.9-1.5c0-.6 0-1 .1-1.1h0l-2.4 6.6h-1.2z"/><use xlink:href="#M" x="48.8"/><use xlink:href="#M" x="57.8"/><path d="M588.1 301.1h-1.6l-3.9-6.3h0v.4c0 .7.1 1.3.1 1.8v4.1h-1.2v-7.9h1.6l3.9 6.3h0v-.9-1.2-4.1h1.2v7.8zm4.9 0h-1.3v-6.8h-2.3v-1.1h6v1.1H593v6.8zm4.8-3.2v3.2h-1.3v-7.9h2.2c1 0 1.8.2 2.3.6s.7 1 .7 1.7c0 1-.5 1.7-1.5 2.1l2.2 3.5H601l-1.9-3.2h-1.3zm0-1h.9c.6 0 1-.1 1.3-.3s.4-.6.4-1-.1-.8-.4-1-.7-.3-1.3-.3h-.9v2.6zm8-.1l1.9-3.6h1.4l-2.6 4.8v3.1h-1.3v-3l-2.6-4.9h1.4l1.8 3.6z"/></g><g class="Ar"><path d="M564.5 229.3c0 2.7-.4 4.7-1.3 6s-2.1 2-3.9 2c-1.7 0-2.9-.7-3.8-2-.9-1.4-1.3-3.3-1.3-5.9 0-2.7.4-4.7 1.3-6 .8-1.3 2.1-2 3.8-2s3 .7 3.8 2 1.4 3.3 1.4 5.9zm-8.5 0c0 2.2.3 3.9.8 4.9s1.4 1.5 2.5 1.5c1.2 0 2-.5 2.5-1.6.5-1 .8-2.7.8-4.9s-.3-3.9-.8-4.9-1.4-1.6-2.5-1.6c-1.2 0-2 .5-2.5 1.5s-.8 2.8-.8 5.1zm11.1 6.6c0-.5.1-.8.3-1.1.2-.2.5-.4.9-.4s.7.1 1 .4c.2.2.3.6.3 1.1s-.1.8-.3 1.1a1.53 1.53 0 0 1-1 .4c-.4 0-.7-.1-.9-.3-.1-.3-.3-.7-.3-1.2z"/><use xlink:href="#N"/><use xlink:href="#N" x="12.4"/><path d="M608.3 235.9v-5.8c0-.7-.2-1.3-.5-1.6-.3-.4-.9-.5-1.6-.5-1 0-1.6.3-2.1.8-.4.5-.7 1.4-.7 2.5v4.7H602v-12.8h1.4v3.9c0 .5 0 .9-.1 1.2h.1c.3-.4.7-.8 1.1-1s1.1-.4 1.7-.4c1.1 0 1.9.3 2.5.8s.8 1.4.8 2.5v5.9h-1.2zm8.3-9.1c.4 0 .8 0 1.1.1l-.2 1.3c-.4-.1-.7-.1-1-.1-.7 0-1.4.3-1.9.9s-.8 1.3-.8 2.2v4.8h-1.4v-9h1.1l.2 1.7h.1c.3-.6.7-1 1.2-1.4s1-.5 1.6-.5zm8.6 6.7c0 .8-.3 1.5-.9 1.9s-1.5.7-2.6.7c-1.2 0-2.1-.2-2.8-.6v-1.3c.4.2.9.4 1.4.5s1 .2 1.4.2c.7 0 1.3-.1 1.6-.3a1.1 1.1 0 0 0 .6-1c0-.4-.2-.7-.5-.9s-.9-.5-1.8-.9c-.8-.3-1.4-.6-1.8-.8s-.6-.5-.8-.8-.3-.7-.3-1.1c0-.7.3-1.3.9-1.7s1.4-.6 2.5-.6a6.71 6.71 0 0 1 2.8.6l-.5 1.1c-.9-.4-1.7-.6-2.5-.6-.6 0-1.1.1-1.5.3-.3.2-.5.5-.5.8 0 .2.1.4.2.6s.3.3.6.5.8.4 1.6.7c1.1.4 1.8.8 2.2 1.2.5.4.7.9.7 1.5z"/></g><path d="M524.5 258.5l-11.3-11.4.8-.7 11.3 11.3z" fill="#415164"/><g class="BB"><path d="M512.6 243l-10.1-3.8 8.5 7.3z"/><path d="M514.4 241.8l12.2-7.7-12.1 11.7-2.3-2.2h0c.7-.7 1.4-1.3 2.2-1.8z"/></g><circle cx="512.6" cy="245.1" r="2.7" fill="#415164"/><circle cx="512.6" cy="245.1" r="1.9" class="Ao"/><path d="M134 204.7h1v111.7h-1zm22.5 0h1v111.7h-1zm22.4 0h1v111.7h-1zm22.4 0h1v111.7h-1zm22.5 0h1v111.7h-1zm22.4 0h1v111.7h-1zm22.4 0h1v111.7h-1zm22.5 0h1v111.7h-1zm22.4 0h1v111.7h-1zm22.4 0h1v111.7h-1zm22.5 0h1v111.7h-1zm22.4 0h1v111.7h-1zm22.4 0h1v111.7h-1zm22.4 0h1v111.7h-1zm22.5 0h1v111.7h-1z" class="At"/><path d="M329.2 229.9H140.1a7.13 7.13 0 0 1-7.1-7.1h0a7.13 7.13 0 0 1 7.1-7.1h189.1a7.13 7.13 0 0 1 7.1 7.1h0a7.13 7.13 0 0 1-7.1 7.1z" class="BE"/><path d="M440.1 248.5h-81.6a7.13 7.13 0 0 1-7.1-7.1h0a7.13 7.13 0 0 1 7.1-7.1h81.6a7.13 7.13 0 0 1 7.1 7.1h0c-.1 3.9-3.3 7.1-7.1 7.1z" class="Au"/><path d="M307.5 267.9H177a7.13 7.13 0 0 1-7.1-7.1h0a7.13 7.13 0 0 1 7.1-7.1h130.5a7.13 7.13 0 0 1 7.1 7.1h0a7.13 7.13 0 0 1-7.1 7.1z" class="Av"/><path d="M396.7 291.3H268.8a7.13 7.13 0 0 1-7.1-7.1h0a7.13 7.13 0 0 1 7.1-7.1h127.9a7.13 7.13 0 0 1 7.1 7.1h0a7.13 7.13 0 0 1-7.1 7.1z" fill="#8dc63f"/><path d="M239.6 312.5h-98.5a7.13 7.13 0 0 1-7.1-7.1h0a7.13 7.13 0 0 1 7.1-7.1h98.5a7.13 7.13 0 0 1 7.1 7.1h0a7.13 7.13 0 0 1-7.1 7.1z" class="BF"/><g stroke="#cecac8" stroke-width=".601" class="Ao"><circle cx="439.4" cy="241.4" r="5.8"/><circle cx="328.8" cy="222.8" r="5.8"/><circle cx="307.2" cy="260.8" r="5.8"/><circle cx="396.3" cy="283.9" r="5.8"/><circle cx="239.2" cy="305.5" r="5.8"/></g><g class="Av"><path d="M776.7 95.9H623c-1.6 0-2.8-1.3-2.8-2.8V35.6c0-1.6 1.3-2.8 2.8-2.8h153.7c1.6 0 2.8 1.3 2.8 2.8v57.5c0 1.6-1.3 2.8-2.8 2.8z"/><path d="M739.6 93.9s5.7 9.1 26.8 11.5c0 0-7-5.1-6.2-15.4l-20.6 3.9z"/></g><ellipse cx="649.8" cy="63.9" rx="19.8" ry="19.3" fill="#ff941f"/><path d="M648.1 60.1c3.4-1.6 6-3.9 9-2.1-3-1.8-5.7.5-9 2.1zm1.6 13.5h0 .2-.2 0z" fill="#bfbada"/><g fill="#545c66"><path d="M647.5 83.1l.3 1-.3-1z"/><path d="M644.4 72.2v.1l3.1 10.8h0l-2-7.1zm13.9 1.9h0l-2.9 3.8 1.1 1-2.7 4c4.1-.8 7.6-2.9 10.4-5.7-1.1-1.4-3.2-1.8-5.9-3.1zm-12.5 8.8l-2.7-4 1.1-1-2.9-3.7h0c-2.7 1.4-4.8 1.8-5.9 3.1 2.8 2.7 6.4 4.8 10.4 5.6z"/></g><g fill="#f5f7fa"><path d="M649.8 74.2h0 0c1.5 0 3.3-.8 4.9-2.2l.5.3.2-.6v-1c-1.8 1.8-3.9 3-5.5 3.1l-.1.1-.1-.1c-1.6 0-3.7-1.2-5.5-3.1v1l.2.6.5-.3c1.7 1.3 3.4 2.2 4.9 2.2z"/><path d="M655.2 72.3l-.5-.3c-1.6 1.4-3.4 2.2-4.8 2.2l4.3 1.8 1-3.7zm-5.4 1.9c-1.4 0-3.2-.8-4.9-2.2l-.5.3 1.1 3.8 4.3-1.9z"/></g><path d="M659.1 62.2s.5-3.3-.9-6.3L657 58c1.9 1.2 2.1 4.2 2.1 4.2z" fill="#f6bb42"/><path d="M648.1 60.1c3.3-1.6 6-3.9 9-2.1l1.2-2.1c-1.1-2.5-3.5-4.7-8.4-4.7-9.3 0-9.9 9.4-9.9 9.4.2.1.5.2.7.2 2.9.9 5.3.3 7.4-.7z" class="BM"/><g class="Ap"><path d="M649.7 73.6h0 .2l5.5-3.6v.5c1.8-1.9 3.4-4.5 3.7-7.4l.1-1s-.2-3-2.1-4.2c-2.9-1.8-5.6.5-9 2.1-2.1 1-4.4 1.6-7.2.8-.1 0-.1-.1-.2-.1h-.1v1.4c0 3.2 1.7 6.2 3.7 8.4V70l5.4 3.6z"/><path d="M649.7 73.6l-5.5-3.6v.5c1.8 1.9 3.9 3.1 5.5 3.1zm.2 0c1.6 0 3.7-1.2 5.5-3.1V70l-5.5 3.6zm-1.8-13.5c-2.1 1-4.5 1.6-7.4.7.1 0 .1.1.2.1 2.8.8 5.1.2 7.2-.8z"/></g><g fill="#656d78"><path d="M655.9 72.6c.8.6 1.6 1 2.4 1.4l-2.9-2.4-.2.6.7.4z"/><path d="M655.4 77.8l2.9-3.7h0c-.8-.4-1.5-.8-2.4-1.4l-.7-.4-1.1 3.7-2 7.1c.6-.1 1.1-.1 1.7-.3l2.7-4-1.1-1z"/><path d="M655.2 72.3l.2-.7-.2.7z"/><path d="M654.2 76h0l1-3.7h0zm-9.8-3.7l-.2-.6-2.9 2.4c.8-.4 1.5-.8 2.4-1.4l.7-.4z"/><path d="M643.7 72.6c-.8.6-1.6 1-2.4 1.4h0l2.9 3.7-1.1 1 2.7 4 1.7.3-3.1-10.9-.7.5z"/></g><g fill="#e6e9ed"><path d="M652 75.1l-1.4 1.7 1.1 2.6v3.8c.2 0 .3 0 .5-.1l2-7.1-2.2-.9zm-3 1.7l-1.4-1.6h0l-2.1.9 2 7.1a.9.9 0 0 1 .5.1v-3.8l1-2.7zm.8-2.6h0 0z"/><path d="M649.9 74.2h-.1.1z"/><path d="M649.8 74.2l-4.3 1.8 2.1-.9 2.2-.9zm.1 0h0l2.1.9h0l2.2.9h0z"/><path d="M654.2 76l-2.1 7.1h0l2.1-7.1z"/><path d="M654.2 76h0 0z"/></g><g fill="#ed5565"><path d="M647.6 75.1h0l1.4 1.7h1.6l1.4-1.7-2.2-.9z"/><path d="M649.8 74.2h0 0zm.1 0c-.1 0-.1 0 0 0-.1 0-.1 0 0 0l-2.2 1 2.2-1 2.2.9h0l-2.2-.9z"/></g><path d="M650.6 76.8H649l-1.1 2.6v3.8c.6.1 1.2.1 1.9.1s1.2 0 1.9-.1v-3.8l-1.1-2.6z" fill="#da4453"/><path d="M678.8 47.1h86.4v3.5h-86.4zm-.4 10.3h86.4v3.5h-86.4zm0 10.4h86.4v3.5h-86.4zm0 10.3h86.4v3.5h-86.4z" class="Ao"/><g class="Av"><path d="M156.5 63.2H2.8c-1.6 0-2.8-1.3-2.8-2.8V2.8C0 1.3 1.3 0 2.8 0h153.7c1.6 0 2.8 1.3 2.8 2.8v57.5c0 1.6-1.2 2.9-2.8 2.9z"/><path d="M38.8 61.2S33.1 70.3 12 72.7c0 0 7-5.1 6.2-15.4l20.6 3.9z"/></g><path d="M11.9 14.3h86.4v3.5H11.9zm-.4 10.4h86.4v3.5H11.5zm0 10.3h86.4v3.5H11.5zm0 10.3h86.4v3.5H11.5z" class="Ao"/><ellipse cx="126" cy="31.3" rx="19.8" ry="19.7" fill="#ff941f"/><path d="M139.6 46.3c-.1-.1-.2-.2-.4-.3.1.1.3.2.4.3zm-26.7-.3c-.1.1-.3.2-.4.3a1.38 1.38 0 0 1 .4-.3z" class="Ay"/><path d="M112.4 46.4h0 0 0zm27.2 0h0zm.8 2.5v.3c.1-.1.1-.2 0-.3h0zm-28.8 0v.3-.3h0z" class="BN"/><g class="Ay"><path d="M129.3 45.9h9.8c-1.3-1-3.5-1.4-6.1-3.1h.1c-.5.8-1.5 2.3-3.8 3.1zM126 51c2.8 0 5.4-.6 7.8-1.6h-15.7c2.5 1.1 5.1 1.6 7.9 1.6zm.1-4.6c-.1 0-.1 0 0 0-.1 0-.1 0 0 0h-12.8c1.2 1 2.5 1.8 3.9 2.5H135c1.4-.7 2.7-1.5 3.9-2.5h-12.8zm-13.1-.5l-.1.1s0-.1.1-.1z"/><path d="M139.2 46l-.1-.1s0 .1.1.1zm-20.1-3.2c-2.6 1.6-4.8 2.1-6.1 3h9.8c-2.3-.7-3.4-2.2-3.7-3z"/></g><g class="BN"><path d="M113 45.9h0 0zm26.1 0h0 0z"/><path d="M126.1 46.4h12.7l.4-.4-.1-.1h-9.8c-.9.3-2 .5-3.2.5zm-3.3-.5H113l-.1.1.4.4H126c-1.3 0-2.3-.2-3.2-.5z"/></g><g fill="#c6a19b"><path d="M119.1 42.8l1.1-.7c-.4.3-.7.5-1.1.7zm12.8-.7c.4.3.7.5 1.1.7-.4-.2-.8-.4-1.1-.7z"/><path d="M122.8 45.9h6.5c2.3-.8 3.3-2.3 3.7-3h-.1c-.4-.2-.7-.4-1.1-.7v-2c-1.8 2.2-4.1 3.6-5.8 3.6s-4-1.4-5.8-3.5v2c-.4.3-.7.5-1.1.7h-.1c.4.6 1.5 2.1 3.8 2.9zm3.2.5h0z"/><path d="M122.8 45.9c.9.3 1.9.5 3.2.5h.1c1.3 0 2.3-.2 3.2-.5h-6.5z"/></g><path d="M118.7 38.8v1h1v-.4c-.4-.5-.7-1-1-1.6v1zm.2 3.3c.4 0 .8-.3.8-.8h-1.5c0 .5.3.8.7.8z" class="Aw"/><g class="BG"><path d="M118.2 41v.3-.3zm.7-.4c-.1 0-.2 0-.3-.1 0 .1 0 .1-.1.2.2-.1.3-.1.4-.1z"/><path d="M118.9 40.6c.4 0 .8.3.8.8v-1.5c0 .3-.4.7-.8.7z"/><path d="M118.7 40.3v.2c.1 0 .2.1.3.1.4 0 .8-.3.8-.8h-1v.5z"/><path d="M118.9 40.6c-.1 0-.2 0-.4.1l-.3.3c-.1.1-.1.2-.1.4h1.5c.1-.5-.3-.8-.7-.8z"/></g><path d="M116.4 35.8v1.5h.8v-4.6-.1-.1c0-1.8.4-3.4 1-4.7-1.2 1.6-1.8 4.3-1.8 8zm-.5 3c0 .4.3.8.8.8.2 0 .4-.1.5-.2v-.6h-1.3z" class="Aw"/><g class="BM"><path d="M116.6 38.1c-.2 0-.4-.1-.5-.2-.1.1-.1.1-.2.1v.8a.68.68 0 0 1 .7-.7z"/><path d="M116.6 38.1c.2 0 .4.1.5.2v-.4c-.1.1-.3.2-.5.2z"/><path d="M117.1 37.3h-.8a.55.55 0 0 1-.3.5c.1.1.3.2.5.2s.4-.1.5-.2v-.5z"/><path d="M117.1 38.8v-.5c-.1-.1-.3-.2-.5-.2-.4 0-.8.3-.8.8l1.3-.1h0z"/></g><g class="Aq"><path d="M117.4 38.8h.8v-2c-.3-.7-.6-1.5-.8-2.3v2.7 1.6z"/><path d="M118.2 38.8h.5v-1a4.67 4.67 0 0 1-.5-1v2zm-1.1-1.5h.3v-2.7c-.1-.6-.2-1.3-.2-2v.1 4.6z"/><path d="M117.4 38.8h0v-1.5c0 .2-.1.4-.3.6v.4a.55.55 0 0 1 .3.5z"/><path d="M117.1 37.9c.2-.1.3-.3.3-.6h-.3v.6zm0 .4v.5h.2c.1-.2 0-.4-.2-.5zm0 2c0 .4.3.8.8.8.1 0 .2 0 .3-.1v-.7h-1.1z"/><path d="M118.6 40.7s0-.1.1-.2c-.1 0-.2-.1-.3-.2h-.2v.7h.1c0-.1.1-.2.3-.3z"/><path d="M118.6 40.5v-.2h-.3c.1.1.2.2.3.2zm-.3.5l.3-.3c-.2.1-.3.2-.3.3z"/></g><g fill="#5d9cec"><path d="M117.9 39.6c.1 0 .2 0 .3.1v-.1c-.1-.1-.2 0-.3 0z"/><path d="M117.9 39.6c-.3 0-.5-.1-.6-.4 0 .1-.1.1-.1.2v.9c-.1-.4.3-.7.7-.7zm.3-.1v.1c.1 0 .2.1.3.2h.2v-1c0 .3-.3.6-.5.7z"/><path d="M118.7 40.3v-.5h-.2c.1.2.2.3.2.5zm-1.4-1.1c-.1-.1-.1-.2-.1-.4h0v.6c0-.1 0-.1.1-.2z"/><path d="M117.1 38.8h0 0zm1.1 0h-.8 0c0 .1-.1.3-.1.4.1.2.4.4.6.4.1 0 .2 0 .3-.1v-.7z"/><path d="M118.2 39.5c.3-.1.5-.4.5-.7h-.5v.7zm-1.1-.7c0 .1.1.3.1.4.1-.1.1-.2.1-.4h-.2zm.3 0h0 0z"/><path d="M117.4 38.8h-.2.2zm.8 1v-.2c-.1 0-.2-.1-.3-.1-.4 0-.8.3-.8.8h1v-.5z"/><path d="M118.2 39.6v.2h.3c-.1-.1-.2-.1-.3-.2z"/><path d="M118.2 40.3h.2c-.1-.1-.2-.3-.2-.5v.5z"/><path d="M118.2 39.8c0 .2.1.4.2.5h.3c0-.2-.1-.4-.2-.5h-.3z"/></g><path d="M133.4 38.8v-1c-.3.5-.6 1.1-1 1.6v.4h1v-1zm-.3 3.3c.4 0 .8-.3.8-.8h-1.5c0 .5.3.8.7.8z" class="Aw"/><g class="BG"><path d="M133.9 41.3V41h-.1c0 .1.1.2.1.3zm-.8-.7c-.4 0-.8-.3-.8-.8v1.5c.1-.4.4-.7.8-.7z"/><path d="M133.5 40.7s0-.1-.1-.2c-.1 0-.2.1-.3.1.2 0 .3 0 .4.1z"/><path d="M133.1 40.6c.1 0 .2 0 .3-.1v-.2-.5h-1c0 .4.3.8.7.8z"/><path d="M133.5 40.7c-.1-.1-.2-.1-.4-.1-.4 0-.8.3-.8.8h1.5c0-.1 0-.2-.1-.4 0-.1-.2-.2-.2-.3z"/></g><path d="M134.9 37.3h.8v-1.5c0-3.7-.7-6.4-1.8-8 .7 1.4 1 2.9 1 4.7v.1.1 4.6zm0 2.1c.1.1.3.2.5.2.4 0 .8-.3.8-.8h-1.3v.6z" class="Aw"/><g class="BM"><path d="M134.9 38.3c.1-.1.3-.2.5-.2-.2 0-.4-.1-.5-.2v.4z"/><path d="M135.4 38.1c.4 0 .8.3.8.8V38c-.1 0-.2-.1-.2-.1-.2.1-.4.2-.6.2z"/><path d="M135.7 37.3h-.8v.6c.1.1.3.2.5.2s.4-.1.5-.2c-.1-.2-.2-.4-.2-.6z"/><path d="M135.4 38.1c-.2 0-.4.1-.5.2v.5h0 1.3c0-.4-.4-.7-.8-.7z"/></g><path d="M137.4 39.1c.4 0 .8-.3.8-.8h-1.5c0 .4.3.8.7.8z" class="BH"/><g class="Aq"><path d="M134.6 38.8v-1.5-2.7c-.2.8-.4 1.5-.8 2.3v2h.8z"/><path d="M133.9 36.9c-.2.3-.3.7-.5 1v1h.5v-2zm1 .4v-4.6-.1c0 .7-.1 1.3-.2 2v2.7h.2z"/><path d="M134.6 37.3v1.5h0c0-.2.1-.4.2-.5v-.4c-.1-.2-.2-.4-.2-.6z"/><path d="M134.9 37.9v-.6h-.3c0 .2.1.4.3.6zm-.3.9h.2v-.5c-.1.1-.1.3-.2.5z"/></g><g fill="#d3ab9f"><path d="M121.4 39.4c1.6 1.3 3.3 2.1 4.6 2.1s3.1-.8 4.6-2.1l1.2.1v.5c.2-.2.3-.4.5-.6v-6.7c0-.4.3-.8.8-.8.2 0 .4.1.5.2.1-.1.3-.2.5-.2s.4.1.5.2v-1.7l-4-4.5c-1.1 0-2 .4-2.1.4-.4.2-.8 0-1-.4 0-.1-.1-.2-.1-.3 0 .4-.3.8-.8.8-.3 0-.6-.2-.7-.5h-.1-.1c-.1.3-.4.5-.7.5-.4 0-.8-.3-.8-.8 0 .1 0 .2-.1.3-.2.4-.6.5-1 .4 0 0-.9-.4-2.1-.4l-4 4.5v1.7c.1-.1.3-.2.5-.2s.4.1.5.2c.1-.1.3-.2.5-.2.4 0 .8.3.8.8v6.7c.2.2.3.4.5.7v-.5l1.6-.2z"/><path d="M126 43.6c1.7 0 4-1.4 5.8-3.6v-.5l-1.2-.1c-1.6 1.3-3.3 2.1-4.6 2.1s-3.1-.8-4.6-2.1l-1.2.1v.5c1.8 2.2 4.1 3.6 5.8 3.6zM118.9 32c-.2 0-.4.1-.5.2.2.1.3.3.3.6v5.1c.3.5.6 1.1 1 1.6v-6.7c0-.5-.4-.8-.8-.8z"/><path d="M118.2 27.8c-.7 1.3-1 2.9-1 4.7v.1c0-.2.1-.3.2-.4v-1.7l4-4.5c-.6 0-1.3.2-1.9.6-.5.2-1 .7-1.3 1.2zm0 9.1v-4.1c0-.2.1-.4.3-.6-.1-.1-.3-.2-.5-.2s-.4.1-.5.2v2.4a6.76 6.76 0 0 0 .7 2.3z"/><path d="M118.2 32.7v4.1c.2.3.3.7.5 1v-5.1c0-.2-.1-.4-.3-.6-.1.2-.2.4-.2.6zm-1-.1c0 .7.1 1.3.2 2v-2.4c-.1.1-.2.2-.2.4zm16.2.1c0-.2.1-.4.3-.6-.1-.1-.3-.2-.5-.2-.4 0-.8.3-.8.8v6.7c.4-.5.7-1 1-1.6v-5.1zm1.5-.1v-.1c0-1.8-.4-3.4-1-4.7-.4-.5-.8-.9-1.2-1.2-.6-.4-1.3-.5-1.9-.6l4 4.5v1.7c0 .1 0 .2.1.4z"/><path d="M133.9 32.7v4.1c.3-.7.6-1.5.8-2.3v-2.4c-.1-.1-.3-.2-.5-.2s-.4.1-.5.2c.1.2.2.4.2.6z"/><path d="M133.4 32.7v5.1a4.67 4.67 0 0 0 .5-1v-4.1c0-.2-.1-.4-.3-.6-.1.2-.2.4-.2.6zm1.5-.1c0-.2-.1-.3-.2-.4v2.4c.1-.6.2-1.3.2-2z"/></g><g class="Aw"><path d="M127.4 21.3c1.7-1 4.1-.7 6.1.5 1.2.7 3.4 2.6 4.6 6.4-1.1-6.6-5.1-8.8-7.8-9-1.9-.1-3.4.6-4.3 1.9.2.3.4.6.5.9.3-.3.6-.5.9-.7z"/><path d="M118.5 21.8c2.1-1.3 4.4-1.5 6.1-.5.3.2.7.4.9.7.1-.3.3-.6.5-.9-.9-1.2-2.5-2-4.3-1.9-2.7.2-6.7 2.4-7.8 9 1.2-3.8 3.4-5.6 4.6-6.4z"/><path d="M126 22.6c.1-.2.3-.4.5-.6-.1-.3-.3-.6-.5-.9-.2.3-.4.6-.5.9.2.2.4.4.5.6z"/></g><g class="Aq"><path d="M138.4 33c0 .2-.1.4-.3.6 0 .5.1.9.1 1.4h.7c.1-2.8-.2-5-.7-6.8.2 1.4.3 3 .2 4.8zM130 22.2c2.1 0 4.1 1.2 5.5 3.4.2.4.5.7.7 1.1-1.1-3.8-3.6-5.7-6-5.9-1.8-.1-3.1.8-3.4 2.1.2 0 .4.1.6.1.7-.5 1.6-.8 2.6-.8z"/><path d="M126.5 23.7c0 .1 0 .1.1.2.2-.3.5-.6.9-.9-.2 0-.4-.1-.6-.1 0 .1-.1.2-.1.3a.55.55 0 0 1-.3.5zm-.5 2.2h0 0 0z"/><path d="M133.5 21.8c-2.1-1.3-4.4-1.5-6.1-.5-.3.2-.7.4-.9.7.1.3.2.6.2.9h.1c.3-1.4 1.6-2.3 3.4-2.1 2.4.2 4.8 2.1 6 5.9 1 1.9 1.6 4.2 1.8 6.9.2-.1.3-.3.3-.6.1-1.8 0-3.4-.2-4.8-1.1-3.8-3.4-5.6-4.6-6.4z"/><path d="M126.5 23.7c.1-.1.2-.3.2-.5 0-.1 0-.2.1-.3h-.1v.2c.1.2 0 .4-.2.6z"/><path d="M126.7 22.9c0-.3-.1-.6-.2-.9-.2.2-.3.4-.5.6.1.1.1.2.2.3h.5z"/><path d="M126.5 23.7c.1-.2.2-.4.2-.6v-.2h-.5c.2.2.3.5.3.8z"/></g><g class="Aw"><path d="M130 23.7h-.2c.5.2.9.5 1.3.8.7.1 1.4.3 2.2.7-1-1-2.1-1.5-3.3-1.5z"/><path d="M127.6 25.6c0-.3.2-.5.4-.6.1 0 1.4-.6 3.1-.5-.4-.3-.8-.5-1.3-.8-1.3.1-2.2.8-2.2 1.9z"/></g><g class="Aq"><path d="M136.5 34c-.1 0-.3-.1-.4-.1v1.9h.5c0-.6 0-1.2-.1-1.8zm-4.6-8.9l2.8 3.2c-.7-1.7-1.6-2.7-2.8-3.2z"/><path d="M135.7 35.8h.5v-1.9c-.2-.1-.3-.3-.3-.6-.2-2-.5-3.7-1.1-5l-2.8-3.2c-.1 0-.1-.1-.2-.1.9.8 1.6 1.7 2.1 2.8 1.1 1.6 1.7 4.3 1.8 8h0zm-5-10.9c.1-.1.1-.1.2-.1-1.3-.2-2.4.4-2.6.6s-.5.3-.8.2v.1c0 .1 0 .2.1.3.2.4.6.5 1 .4 0 0 .9-.4 2.1-.4h0c-.3-.4-.3-.8 0-1.1z"/><path d="M133.9 27.8c-.5-1.1-1.3-2-2.1-2.8-.1 0-.1-.1-.2-.1-.2-.1-.4-.1-.7-.1-.1 0-.1.1-.2.1-.3.3-.3.8-.1 1.1h0c.6 0 1.3.2 1.9.6.6.2 1 .7 1.4 1.2z"/><path d="M134.3 26.4c-.3-.5-.7-.9-1-1.2-.7-.4-1.5-.6-2.2-.7l.3.3a.76.76 0 0 1 .4.2l.1.1c1.2.5 2.1 1.6 2.8 3.2l1 1.1a14.04 14.04 0 0 0-1.4-3zm1.9 4.9v2.6c.1.1.2.1.4.1l-.4-2.7z"/><path d="M135.7 29.3l-1-1.1c.6 1.3.9 3 1.1 5 0 .2.2.4.3.6v-2.6l-.4-1.9zm-3.9-4.3c-.1-.1-.2-.2-.4-.2.1 0 .2.1.4.2 0 0 0 .1.1.1l-.1-.1z"/><path d="M131.4 24.7l-.3-.3c-1.7-.2-3 .5-3.1.5-.2.1-.4.3-.4.6v.1c.3.1.6 0 .8-.2s1.3-.8 2.6-.6c.1-.1.3-.1.4-.1z"/><path d="M130.9 24.8c.2 0 .4.1.7.1.1 0 .1 0 .2.1-.1-.1-.2-.2-.3-.2-.2-.1-.4-.1-.6 0zm7.3 12h0 0v.5c.4 0 .7-.3.7-.8h-.7v.3z"/></g><g class="BO"><path d="M138.2 35.8c.4 0 .7.4.7.8V35h0c0 .4-.4.7-.7.8z"/><path d="M138.2 35.8a.68.68 0 0 0 .7-.7h-.7v.7z"/><path d="M138.2 35.8v.8h.7c0-.5-.3-.8-.7-.8z"/></g><g class="Aq"><path d="M136.2 37.3h0v.7c.1 0 .2.1.3.1s.2 0 .3-.1v-.7h-.6z"/><path d="M135.7 37.3h.5 0-.5z"/><path d="M135.9 37.9c.1.1.1.1.2.1v-.7c.1.2 0 .4-.2.6z"/><path d="M135.9 37.9c.1-.1.2-.3.2-.5h-.5c.1.1.2.3.3.5z"/></g><g class="BG"><path d="M136.2 36.6h.2c-.1-.1-.2-.1-.2 0h0zm.2-.1h.2v-.1c0 .1-.1.1-.2.1z"/><path d="M135.7 35.8v1.5c0-.3.2-.6.5-.7v-.1c-.3-.1-.5-.4-.5-.7z"/><path d="M136.6 35.8h-.5v.7h.2.2c.2-.3.2-.5.1-.7z"/><path d="M136.2 36.5v-.7h-.5 0c0 .3.2.6.5.7zm.5.1h-.2-.2v.7h.5v-.5c-.1-.1-.1-.2-.1-.2z"/><path d="M135.7 37.3h.5v-.7c-.3.1-.5.4-.5.7zm.7-.8z"/></g><g class="Aq"><path d="M114 33.6c-.2-.1-.3-.3-.3-.6-.1-1.8 0-3.4.2-4.8-.6 1.8-.9 4-.7 6.8h.7c0-.5.1-.9.1-1.4zm8-11.4c1 0 1.9.3 2.6.8.2 0 .4-.1.6-.1-.3-1.4-1.6-2.3-3.4-2.1-2.4.2-4.8 2.1-6 5.9.2-.4.4-.8.7-1.1 1.4-2.2 3.5-3.4 5.5-3.4z"/><path d="M126 25.9zm-.6-2v-.2c-.1-.1-.2-.3-.2-.5 0-.1 0-.2-.1-.3-.2 0-.4.1-.6.1a1.96 1.96 0 0 1 .9.9z"/><path d="M113.7 33c0 .2.1.4.3.6.3-2.8.9-5.1 1.8-6.9 1.1-3.8 3.6-5.7 6-5.9 1.8-.1 3.1.8 3.4 2.1h.1c0-.3.1-.6.2-.9-.3-.3-.6-.5-.9-.7-1.7-1-4.1-.7-6.1.5-1.2.7-3.4 2.6-4.6 6.4-.2 1.4-.3 3-.2 4.8z"/><path d="M125.5 23.7c-.1-.2-.2-.4-.2-.6v-.2h-.1c0 .1.1.2.1.3 0 .2.1.4.2.5z"/><path d="M126 22.6c-.1-.2-.3-.4-.5-.6-.1.3-.2.6-.2.9h.5c.1-.1.2-.2.2-.3z"/><path d="M125.5 23.7l.3-.8h-.5v.2c0 .2 0 .4.2.6z"/><path d="M126 25.7c0-.7.2-1.3.6-1.8 0-.1 0-.1-.1-.2-.1.1-.1.1-.2.1s-.1.1-.2.1h-.1-.1-.1-.1c-.1 0-.2 0-.2-.1-.1 0-.1-.1-.2-.1v.2c.5.5.7 1.1.7 1.8 0 .1-.1.2-.1.2h.1.1s-.1-.1-.1-.2z"/><path d="M126.4 23.8c.1 0 .1-.1.2-.1-.1 0-.2.1-.2.1zm-.4.1s-.1 0 0 0c-.1 0-.1 0 0 0z"/><path d="M126.4 23.8c-.1 0-.1.1-.2.1 0 0 .1 0 .2-.1zm-.7 0z"/><path d="M125.5 23.7c.1.1.1.1.2.1-.1 0-.1-.1-.2-.1zm.6.2c-.1 0 0 0 0 0z"/><path d="M125.9 23.9c-.1 0-.2 0-.2-.1.1.1.1.1.2.1zm.5-.1zm-.4-.9h.2c-.1-.1-.1-.2-.2-.3-.1.1-.1.2-.2.3h.2z"/><path d="M126.2 22.9h-.2-.2c-.1.2-.2.5-.3.8.1.1.1.1.2.1s.1.1.2.1h.1.1c.1 0 .2 0 .2-.1.1 0 .1-.1.2-.1 0-.3-.1-.6-.3-.8z"/></g><g class="BH"><path d="M132 23.5c1.7.5 3.7 2.1 4.7 6.1 0-.4-.1-.8-.2-1.1-1-3.2-2.9-4.7-3.9-5.3-1.6-1-3.4-1.2-4.6-.5-.2.1-.4.2-.5.4.5.1.9.2 1.4.4 1-.3 2.1-.4 3.1 0zm5.1 10.3c0 .6.1 1.3.1 2v1h.3c0-.1-.1-.2-.1-.3v-1.4-.2-1.3c-.1 0-.1 0-.2-.1 0 .2-.1.2-.1.3z"/><path d="M127.6 25.6c-.1 0-.2-.1-.3-.1-.3-.3-.4-.7-.1-1.1s1-.8 1.8-1c-.4-.2-.9-.3-1.4-.4-.5.5-.8 1.2-.8 2.2a.68.68 0 0 1-.7.7c.1.3.4.5.7.5.4 0 .8-.3.8-.8 0 .1 0 0 0 0zm9.7 7.6c0 .2 0 .3-.1.4.1 0 .1.1.2.1 0-2.1-.3-3.8-.8-5.2.1.4.1.7.2 1.1a28.43 28.43 0 0 1 .5 3.6z"/><path d="M137.6 33.7h-.2V35v.2-.2h.8c0-.5-.1-1-.1-1.4-.2.1-.3.1-.5.1zM130 22.2c-1 0-1.9.3-2.6.8h.2c.2-.1.3-.3.5-.4 1.2-.7 3-.5 4.6.5 1 .6 2.8 2.1 3.9 5.3-.1-.6-.2-1.2-.4-1.8-.2-.4-.4-.8-.7-1.1-1.4-2.1-3.4-3.3-5.5-3.3z"/><path d="M126.8 25.2c0-.9.3-1.7.8-2.2h-.2c-.3.2-.6.5-.9.9.2.4.3.8.3 1.3a.68.68 0 0 1-.7.7.68.68 0 0 0 .7-.7zm10.6 8.5h.2c.2 0 .3-.1.4-.1-.3-2.8-.9-5.1-1.8-6.9.2.6.3 1.1.4 1.8.5 1.4.8 3.1.8 5.2z"/><path d="M130 23.7c1.1 0 2.3.5 3.2 1.5.1 0 .1.1.2.1 1.8 1.1 2.9 3.4 3.5 6.6l-.1-2.3c-1-4-3-5.6-4.7-6.1-1.1-.3-2.1-.3-3-.1l.8.3h.1zm7.1 10.1c.1 0 .1-.1.1-.2-.1 0-.1-.1-.2-.1.1.1.1.2.1.3z"/><path d="M129.8 23.7l-.8-.3c-.8.2-1.5.6-1.8 1-.3.3-.2.8.1 1.1.1.1.2.1.3.1v-.1c0-1 .9-1.7 2.2-1.8zm7.4 9.9c.1-.1.1-.3.1-.4-.1-1.4-.3-2.6-.6-3.6.1.7.1 1.5.1 2.3.1.5.1 1.1.2 1.6.1 0 .2.1.2.1z"/><path d="M136.6 34c0 .6.1 1.2.1 1.8h.5 0c0-.7 0-1.4-.1-2-.1.1-.3.2-.5.2zm-9-8.4s0 .1 0 0c0 .1 0 .1 0 0 0 .1 0 0 0 0z"/><path d="M134.3 26.4c.6.8 1 1.8 1.4 3l.3.4c.1.1.2.3.2.5v1.1c.2.8.3 1.7.4 2.7h.1c.2 0 .3-.1.5-.2v-.3c-.1-.1-.2-.3-.2-.6v-1.1c-.5-3.3-1.7-5.5-3.5-6.6-.1 0-.1-.1-.2-.1.3.3.7.7 1 1.2z"/><path d="M136 29.7l-.3-.4c.2.6.4 1.3.5 2v-1.1c0-.2-.1-.4-.2-.5zm-8.4-4.1zm9.5 7.9c0-.6-.1-1.1-.2-1.6V33c-.1.2 0 .4.2.5zm.3 3.3h.8v-.3h-.8v.3z"/><path d="M138.1 35.8c-.4 0-.6-.3-.7-.6v1.4c0-.5.3-.8.7-.8h0 0z"/><path d="M137.4 35.1c.1.3.3.6.7.6V35h-.8v.1z"/><path d="M137.4 36.5h.8v-.8c-.5.1-.8.4-.8.8zm-.7 0l.3.3h.2v-1c0 .3-.2.6-.5.7z"/><path d="M136.6 35.8v.7c.3-.1.5-.4.5-.7h0-.5z"/><path d="M136.7 36.6v.2h0 .3c-.1-.1-.2-.2-.3-.2zm-10.6-10.7c.4 0 .7-.4.7-.7 0-.5-.1-.9-.2-1.3-.4.5-.6 1.1-.6 1.8 0 .1.1.2.1.2z"/></g><g class="Ay"><path d="M138 37.3c-.1.2-.3.3-.6.3.4 0 .7.3.7.8v-1c0-.1 0-.1-.1-.1zm-.9.3c.1-.1.2-.1.3-.1-.1 0-.2 0-.3-.1v.2zm-.4.4v.3-.3z"/><path d="M137.4 37.5c-.1 0-.3 0-.4.1l-.3.3c-.1.1-.1.2-.1.3h1.5c.1-.3-.2-.7-.7-.7zm.6-.2h.1v-.5c.1.2 0 .3-.1.5z"/><path d="M138.2 36.8h0 0zm-1.1.8s0-.1.1-.1c-.1 0-.2-.1-.3-.2h-.2v.7h.1c0-.2.1-.3.3-.4z"/><path d="M136.8 37.9l.3-.3c-.2.1-.3.2-.3.3zm-.1-.6h.2c-.1-.1-.2-.3-.2-.5v.5z"/><path d="M137.4 36.8h-.3v.5.2c.1 0 .2.1.3.1.2 0 .4-.1.6-.3-.3-.1-.5-.3-.6-.5z"/><path d="M137.4 37.5zm.6-.2c.1-.1.2-.3.2-.5h-.8c.1.2.3.4.6.5zm-1.1 0c.1.1.2.2.3.2v-.2h-.3z"/><path d="M137.2 37.3v-.5h-.2c.1.1.2.3.2.5z"/><path d="M137 36.8h-.3 0c0 .2.1.4.2.5h.3c0-.2-.1-.4-.2-.5z"/></g><g class="Aq"><path d="M133.9 41c.1 0 .2.1.3.1.4 0 .8-.3.8-.8h-1v.7z"/><path d="M133.7 40.3c-.1.1-.2.2-.3.2 0 .1 0 .1.1.2l.3.3h.1v-.7h-.2z"/><path d="M133.4 40.5c.1 0 .2-.1.3-.2h-.3v.2zm.4.5l-.3-.3c0 .1.2.2.3.3z"/></g><g fill="#5d9cec"><path d="M134.8 39.2c-.1.2-.4.4-.6.4.4 0 .8.3.8.8v-.9c-.2-.2-.2-.2-.2-.3zm-.9.4c.1 0 .2-.1.3-.1-.1 0-.2 0-.3-.1v.2z"/><path d="M133.4 38.8v1h.2c.1-.1.2-.2.3-.2v-.1c-.3-.1-.5-.4-.5-.7z"/><path d="M133.4 39.8v.5c0-.2.1-.4.2-.5h-.2zm1.5-1c0 .1-.1.3-.1.4s.1.1.1.2v-.6h0z"/><path d="M134.9 38.8h0 0zm-.3 0h-.8v.7c.1 0 .2.1.3.1.3 0 .5-.1.6-.4 0-.1-.1-.2-.1-.4h0z"/><path d="M133.9 39.5v-.7h-.5c0 .3.2.6.5.7zm.9-.3c.1-.1.1-.2.1-.4h-.2c-.1.2 0 .3.1.4zm-.2-.4h0 0z"/><path d="M134.6 38.8h.2-.2zm-.5.8c-.1 0-.2 0-.3.1v.2.5h1c.1-.5-.2-.8-.7-.8z"/><path d="M133.6 39.8h.3v-.2c-.1.1-.2.1-.3.2z"/><path d="M133.9 40.3v-.5c0 .2-.1.4-.2.5h.2z"/><path d="M133.4 40.3h.3c.1-.1.2-.3.2-.5h-.3c-.1.2-.2.3-.2.5z"/></g><path d="M114.6 39.1c.4 0 .8-.3.8-.8h-1.5c0 .4.3.8.7.8z" class="BH"/><g class="Aw"><path d="M122.2 23.7h-.2c-1.1 0-2.3.5-3.2 1.5.7-.4 1.5-.6 2.2-.7.3-.3.8-.6 1.2-.8z"/><path d="M124.1 25c.2.1.4.3.4.6-.1-1-1-1.8-2.2-1.8-.5.2-.9.5-1.3.8 1.6-.3 3 .3 3.1.4z"/></g><g class="Aq"><path d="M117.3 28.3l2.8-3.2c-1.1.5-2.1 1.5-2.8 3.2zm-1.9 7.5h.5v-1.9c-.1.1-.2.1-.4.1-.1.6-.1 1.2-.1 1.8z"/><path d="M117.3 28.3c-.6 1.3-.9 3-1.1 5 0 .2-.2.4-.3.6v1.9h.5 0c0-3.7.7-6.4 1.8-8 .5-1.1 1.3-2 2.1-2.8-.1 0-.1 0-.2.1l-2.8 3.2zm7.2-2.7c-.3.1-.6 0-.8-.2s-1.3-.8-2.6-.6c.1 0 .1.1.2.1.3.3.3.8.1 1.1h0a6.39 6.39 0 0 1 2.1.4c.4.2.8 0 1-.4v-.4c0 .1 0 .1 0 0 0 .1 0 0 0 0z"/><path d="M121.3 24.9c-.1-.1-.1-.1-.2-.1-.2 0-.4.1-.7.1-.1 0-.1.1-.2.1-.9.8-1.6 1.7-2.1 2.8.4-.5.8-.9 1.2-1.2.6-.4 1.3-.5 1.9-.6h0c.4-.4.4-.8.1-1.1z"/><path d="M117.8 26.4c-.6.8-1 1.8-1.4 3l1-1.1c.7-1.6 1.6-2.7 2.8-3.2l.1-.1c.1-.1.2-.2.4-.2l.3-.3c-.7.1-1.4.3-2.2.7-.4.3-.7.7-1 1.2zm-2.3 7.6c.1 0 .3-.1.4-.1v-2.6c-.2.8-.3 1.7-.4 2.7z"/><path d="M115.9 31.3v2.6c.2-.1.3-.3.3-.6.2-2 .5-3.7 1.1-5l-1 1.1-.4 1.9zm4.3-6.3l-.1.1.1-.1c.2-.1.3-.1.4-.2-.1 0-.3 0-.4.2zm3.9 0c-.1 0-1.4-.7-3.1-.5l-.3.3h.5c1.3-.2 2.4.4 2.6.6s.5.3.8.2v-.1c-.2-.2-.3-.4-.5-.5z"/><path d="M120.6 24.7l-.3.3c.1 0 .1-.1.2-.1.2-.1.4-.1.7-.1-.3-.1-.4-.1-.6-.1zm-6.7 12.1h0v-.3h-.7c0 .4.3.7.7.8v-.5h0z"/></g><g class="BO"><path d="M113.9 35.8a.68.68 0 0 1-.7-.7h0v1.5c-.1-.5.3-.8.7-.8z"/><path d="M113.9 35.8v-.7h-.7c0 .3.3.6.7.7z"/><path d="M113.9 35.8c-.4 0-.7.3-.7.8h.7v-.8z"/></g><g class="Aq"><path d="M115.9 37.3h-.5v.7c.1 0 .2.1.3.1s.2 0 .3-.1v-.7h-.1z"/><path d="M116.4 37.3h-.5 0 .5z"/><path d="M115.9 37.3v.7c.1 0 .2-.1.2-.1-.1-.2-.2-.4-.2-.6z"/><path d="M116.4 37.3h-.5c0 .2.1.4.2.5a.55.55 0 0 0 .3-.5z"/></g><g class="BG"><path d="M115.4 36.6h.2c-.1-.1-.2-.1-.2 0 0-.1 0-.1 0 0zm.2-.1h.2v-.1c0 .1-.1.1-.2.1z"/><path d="M115.9 36.5h0c.3.2.5.5.5.8v-1.5c0 .3-.2.6-.5.7zm0-.7h-.5v.7h.2.2v-.7z"/><path d="M116.4 35.8h0-.5v.7c.3-.1.5-.4.5-.7zm-.8.7h-.3v.2.5h.5v-.7c0 .1-.1 0-.2 0z"/><path d="M115.9 36.6v.7h.5c0-.3-.2-.6-.5-.7zm-.3-.1z"/></g><g class="BH"><path d="M114.9 35.8h0c0-.7 0-1.4.1-2-.1 0-.1-.1-.1-.2-.1 0-.1.1-.2.1V35v.2 1.4c0 .1 0 .2-.1.3h.3v-1.1h0zm4.4-12.7c-1 .6-2.8 2.1-3.9 5.3-.1.4-.1.7-.2 1.1 1-4 3-5.6 4.7-6.1 1.1-.3 2.1-.3 3-.1.4-.2.9-.3 1.4-.4-.2-.1-.3-.3-.5-.4-1.1-.6-2.9-.4-4.5.6z"/><path d="M125.2 25.2c0-.9-.3-1.7-.8-2.2-.5.1-.9.2-1.4.4.8.2 1.5.6 1.8 1 .3.3.2.8-.1 1.1-.1.1-.2.1-.3.1v.1c0 .4.3.8.8.8.3 0 .6-.2.7-.5-.3-.1-.7-.4-.7-.8zm-10.5 8c.1-1.4.3-2.6.6-3.6 0-.4.1-.8.2-1.1-.5 1.4-.8 3.1-.8 5.2.1 0 .1 0 .2-.1-.2-.1-.2-.3-.2-.4z"/><path d="M114.7 35.1v-.2-1.3h-.2c-.2 0-.3-.1-.4-.1 0 .5-.1.9-.1 1.4h.8v.2zm4.6-12c1.6-1 3.4-1.2 4.6-.5.2.1.4.2.5.4h.2c-.7-.5-1.6-.8-2.6-.8-2.1 0-4.1 1.2-5.5 3.4-.2.4-.5.7-.7 1.1-.2.6-.3 1.1-.4 1.8 1.1-3.2 2.9-4.8 3.9-5.4z"/><path d="M125.3 25.2c0-.5.1-.9.2-1.3-.2-.3-.5-.6-.9-.9h-.2c.6.5.8 1.3.9 2.2a.68.68 0 0 0 .7.7.68.68 0 0 1-.7-.7zm-10.8 8.5h.2c0-2.1.3-3.8.8-5.2.1-.6.2-1.2.4-1.8-1 1.9-1.6 4.2-1.8 6.9 0 .1.2.1.4.1-.1 0 0 0 0 0z"/><path d="M126 25.9v-.2c0-.7-.2-1.3-.6-1.8-.1.4-.2.9-.2 1.3.1.4.4.7.8.7zm-6-2.4c-1.7.5-3.7 2.1-4.7 6.1-.1.7-.1 1.5-.1 2.3.5-3.3 1.7-5.5 3.5-6.6.1 0 .1-.1.2-.1 1-.9 2.1-1.5 3.2-1.5h.2l.8-.3c-1-.2-2-.3-3.1.1z"/><path d="M114.8 33.6c0 .1.1.1.1.2v-.3s0 .1-.1.1zm9.7-8c.1 0 .2 0 .3-.1.3-.3.4-.7.1-1.1s-1-.8-1.8-1l-.8.3c1.2.1 2.1.8 2.2 1.9z"/><path d="M114.8 33.6c.1 0 .1-.1.2-.1 0-.6.1-1.1.2-1.6l.1-2.3c-.3 1-.5 2.2-.6 3.6 0 .1 0 .3.1.4zm.7.4c-.1 0-.1 0 0 0-.2 0-.4-.1-.5-.2 0 .6-.1 1.3-.1 2h.5c0-.6 0-1.2.1-1.8z"/><path d="M124.5 25.6s0 .1 0 0c0 .1 0 .1 0 0 0 .1 0 0 0 0zm-9.5 7.9v.3c.1.1.3.2.5.2h.1l.4-2.7v-1.1c0-.2.1-.4.2-.5l.3-.4c.4-1.1.8-2.1 1.4-3 .3-.5.7-.9 1-1.2-.1 0-.1.1-.2.1-1.8 1.1-2.9 3.4-3.5 6.6v1.1c0 .3-.1.5-.2.6z"/><path d="M116.1 29.7c-.1.1-.2.3-.2.5v1.1c.1-.7.3-1.3.5-2l-.3.4zm8.4-4.1zm-9.3 7.3v-1.1c-.1.5-.1 1.1-.2 1.6.1 0 .2-.2.2-.5zm-.5 3.6h-.8v.3h.8c-.1-.1 0-.2 0-.3z"/><path d="M114.7 36.5v-1.4c-.1.3-.3.6-.7.6.3.1.7.4.7.8z"/><path d="M114 35.8c.4 0 .6-.3.7-.6V35h-.8c0 .2 0 .5.1.8-.1 0-.1 0 0 0-.1 0-.1 0 0 0z"/><path d="M113.9 35.8v.8h.8c0-.5-.4-.8-.8-.8zm1 0h0 0z"/><path d="M114.9 35.8v1h.2c.1-.1.2-.2.3-.2v-.1c-.3-.1-.5-.4-.5-.7z"/><path d="M114.9 35.8c0 .3.2.6.5.7v-.7h-.5zm.2 1h.3 0v-.2c-.1 0-.3.1-.3.2z"/></g><g class="Ay"><path d="M114.6 37.5c-.2 0-.4-.1-.6-.3h-.1v1c0-.3.3-.7.7-.7zm.4.1s0-.1-.1-.1-.2.1-.3.1c.1-.1.3 0 .4 0zm.4.7V38h-.1c0 .1.1.2.1.3z"/><path d="M115 37.6c-.1-.1-.2-.1-.3-.1-.4 0-.7.3-.7.8h1.5c0-.1 0-.2-.1-.3-.3-.1-.4-.2-.4-.4zm-1.1-.8h0 0z"/><path d="M114 37.3c-.1-.1-.2-.3-.2-.5v.5h.2zm1.2 0c-.1.1-.2.2-.3.2 0 .1 0 .1.1.1l.3.3h.1v-.7h-.2z"/><path d="M115.3 37.9l-.3-.3c0 .2.1.3.3.3zm-.1-.6h.2v-.5c0 .2-.1.3-.2.5zm-.3-.5h-.3c-.1.3-.3.4-.6.5.1.2.3.3.6.3.1 0 .2 0 .3-.1v-.2-.5z"/><path d="M114.6 37.5zm0-.7h-.8c0 .2.1.3.2.5.3-.1.5-.3.6-.5zm.3.7c.1 0 .2-.1.3-.2h-.3v.2z"/><path d="M114.9 37.3c0-.2.1-.4.2-.5h-.2v.5z"/><path d="M115.4 36.8h-.3c-.1.1-.2.3-.2.5h.3c.1-.2.2-.3.2-.5h0z"/></g><path d="M118.2 49.4h15.7l1.1-.5h-17.8c.3.2.6.4 1 .5z" class="BN"/><path d="M266.9 388.3c.4-.4.2-1.5.2-1.5s-5.8-1.1-7.7-.8c-.5.1-1.4.5-2.2.8-.1.1-.4.5-.6.6-.3.1-.4-.1-.6 0-.6.3-.9.6-.9.6-.7 2.7-.1 3.8-.1 3.8s4.7 1.8 5.9 1c3-2.5 5.2-3.6 6-4.5zm13.5-4.8l-.4 4.4 4.2 1.2s.4-.6.7-.5.6.8.9.9c.9.3 1.9.6 2.3.6.8.3 8.5 2.5 8.5 2.5s.5-.8.3-1.2c-.1-.2-.7-.6-1.1-.9-2-1.3-7.8-5-8.3-7.4-.4-2.8-7.1.4-7.1.4z" fill="#161711"/><path d="M283.7 241.9l-.6-5.3s3.7-.9 3.7-3c.1-4.3-3.1-10-4.6-11.5-4-4-8-12.3-16.8-1.7-3.4 4 7.4 14.3 8.8 16.9s1 6.1 1 6.1l3.3 1.1 5.2-2.6zm-23.1 35.9l22.2 6.4s-13.1 2.9-24.1.6c-10.9-2.3.8-6.9 1.9-7z" class="As"/><path d="M270 332.1s8.9 11.1 5.6 20.6l-12.3 35.9c-.7 2.2-1.4 1.7-1.4 1.7l-4.9.2-2.1-2.2 10.1-38.7 5-17.5z" class="BP"/><path d="M317.7 240.4l13.7-16.5s-5.2 22.8-12.7 24.6c-7.4 1.8-1-8.1-1-8.1z" class="As"/><path d="M274.5 242.9s-4.9-.6-14.1 17.3c-9.3 17.9-7.3 17.8-7.3 17.8l-1 4.5 6.9 3.2 9.5-15 6-27.8z" class="Az"/><g class="BP"><path d="M293 300.4s-9.1 37.4-21.2 58.6c-6.5 11.4-6.1-5-6.1-5l10.1-67.2 23.2-1.1s-2.4 3.1-6 14.7z"/><path d="M277.6 298.6l19.6 40.3c4.4 13.1 9.9-3 10.2-6.1.3-3.2-.9-19.6-5.3-35.3l-4.4-15.8-20.1 16.9z"/><path d="M296.6 331.5s-3.2 6.4-6.7 14.9c-2.6 6.1-7.9 24.5-10.4 37.5-.2.8 8.6.7 8.6.7l16.2-42.5c3.1-7.6-1-14.8-7.7-10.6z"/></g><g class="Az"><path d="M267.6 248.4l5.7-6 2.4-3.2 10.5-1.5 2.2 3.1 8.5 3s2.4 3.3 2.1 16.8c-.3 14.9 7.2 35.2 4.1 37.4-19.5 14.6-29.8 3.2-29.8 3.2s-9.8-27.9-5.7-52.8z"/><path d="M282.5 246s-1.2 2.5 5.7 4.4c11.8 3.3 24 2.1 26.4 2 2.4-.2 5.8-.5 8.1-4.9l2.3-4.4-6.6-4.7-1.5 1.8-.6 1.1-17.2-1c-19.5-1.1-16.6 5.7-16.6 5.7z"/></g><path d="M279.5 224.5s-1.6-.4-1.4.6c.1 1 1.6 2.9 2.2 2.9s1.7 2.6 1.7 2.6l-.6 3.4-7.9 2.7s-2.8-.3-3.6-1.9l-6.9-13.4 4.6-4.8s2.4-2.5 4.2-3.8c2.8-1.9 4-.6 4.2.4.2.9 1.2.6 2.5.3 1.3-.5 3.1 0 2.7.8-.2.4 1.3.6 1.1 1.7-.3 1.6-2.5 2.8-2 5 .3 1.2 1.1 4.6-.8 3.5z" class="Ax"/><path d="M330.6 228.4s-3.3-1.6-3.6-2.6-.8-4.8-.8-4.8l-.1-1s1-.6 1.5 1.8c.4 2.6.9 1.2.9 1.2l.6-2.5.8-2.9.2-1.4s.1-.7.3-.9c.5-.5.7.1.7.1l-.5 5.3 1.7-4.9s.4-.6.6-.6c.4 0 .3.3.3.3l-.6 5.9 1.2-2.4s.4-.6.6-.6h.5l-3.2 9.8-1.1.2z" class="As"/><path d="M87.8 111.4s-6.9-6.3-1.6-16.2c3-5.5 1.4-20.5-8.2-15.8-9.7 4.7-7-1.2-12.5 1.4-5.4 2.6-7.9 6.5-7.1 10.8.8 4.2.3 12.4-3.1 13.9-3.3 1.5-19.3 10.2-9 21.2s47.8 3 41.5-15.3z" class="Ax"/><path d="M86.2 109.5s6.6 21.2 6.3 24-2.5 11.4-5.1 10c-2.5-1.4-6.2-9.5-7.3-15.8-1.1-6.4-12.3-27.4 6.1-18.2z" class="Az"/><path d="M79.5 107.2c-.8 0-11-1.1-11-1.1l-6.9 3s-3.5-.3-2.6 5.4c.8 5.6 10 27.4 11.7 28.5s15.2 3 17.3 2.2c2.2-.8 6.1-1.3 6.1-1.3s0-15.8.4-16.7c.4-.8.7-6.1-4.3-9.9-3.5-2.6-10.7-10.1-10.7-10.1z" fill="#d3e7ec"/><path d="M89.9 182.3c-1.3 0-2.2-.8-2.2-1.8V65c0-1 1-1.8 2.2-1.8h158.7c1.3 0 2.2.8 2.2 1.8v115.5c0 1-1 1.8-2.2 1.8H89.9z" class="Ao"/><path d="M248.6 63.9c.9 0 1.5.5 1.5 1.1v115.5c0 .6-.6 1.1-1.5 1.1H89.9c-.9 0-1.5-.5-1.5-1.1V65c0-.6.6-1.1 1.5-1.1h158.7m0-1.4H89.9c-1.7 0-3 1.1-3 2.6v115.5c0 1.5 1.3 2.6 3 2.6h158.7c1.7 0 3-1.1 3-2.6V65c0-1.4-1.3-2.5-3-2.5h0z" class="BC"/><path d="M197.3 84h9.6v9.6h-9.6z" class="BF"/><path d="M197.3 100h9.6v9.6h-9.6z" class="Av"/><path d="M197.3 116h9.6v9.6h-9.6z" class="BI"/><path d="M197.3 132h9.6v9.6h-9.6z" fill="#7299d4"/><path d="M197.3 148h9.6v9.6h-9.6z" fill="#babcbe"/><path d="M210.7 87.1h29.5v3.4h-29.5zm0 16h29.5v3.4h-29.5zm0 16h29.5v3.4h-29.5zm0 16h29.5v3.4h-29.5zm0 16h29.5v3.4h-29.5z" class="At"/><path d="M102.2 139.9c-3.5-8-4.3-16.6-2.8-25.1l42.6 8.1-39.8 17z" fill="#babcbe"/><path d="M159.2 162.5c-22 9.5-47.5-.7-57-22.7l39.8-17.1 17.2 39.8z" class="BF"/><path d="M183.4 135.9c-3.8 11.9-12.6 21.6-24.3 26.7L142 122.7l41.4 13.2z" class="Av"/><path d="M136.7 79.8A43.21 43.21 0 0 1 175.5 95c9.5 11.4 12.5 26.8 8 40.9l-41.2-13.2-5.6-42.9z" class="BI"/><path d="M136.7 79.8s-33.3 4.3-37.2 35l42.8 8.3-5.6-43.3z" fill="#7299d4"/><path d="M64.3 111.7S78.8 131.2 79 134s-2.4 11-5.2 10.2-8.1-8-10.4-14.1-10.5-25.7.9-18.4z" class="Az"/><path d="M68 94.1l1.1 12.1 7.9 1-1.8-7.7z" class="Ap"/><path d="M76.2 103.6c-.2-.1-.4-.2-.7-.3-2.5-1.3-5.2-3-7-4.7l-.5-5.4 7.1 5.8 1.1 4.6z" class="BA"/><path d="M82.2 87.2s.6 6.2-1.1 9.7c-1.7 3.6-1.5 6.4-5.3 4.5-3.7-1.9-8.1-5.1-9-7.1s.6-4.8 3-3.6c2.5 1.3 2.2-.6 4.7-.2s7 .1 7.7-3.3z" class="Ap"/><path d="M84.1 239.3l-1.3 6.7h18.9s.1-2.1-2.1-2.7-8.3-2.5-9.8-4.4c-1.6-2.1-5.7.4-5.7.4z" class="Ax"/><path d="M83.6 238.2s-3-23.6-1.7-29.6 1.4-9.6 1-12.5c-.5-3-2.7-40.4-2.7-40.4L91 142.8h3.2s.5 30.6-1.9 49c-2.5 18.5-3.5 47.1-3.5 47.1l-5.2-.7z" fill="#ed7626"/><path d="M75.2 142.1s-8.1 10.3-10.3 19.7-6.7 32.3-7.1 34c-.5 1.7-4.2 12.5-5.2 15.2s-5.2 27.1-5.2 27.1h4.9s10.1-24.6 11.9-30.3c1.7-5.7 2.5-11.6 2.5-11.6s17.8-32.8 20.9-41.2c3.2-8.4 3.5-12.3 3.5-12.3l-15.9-.6z" class="Au"/><path d="M52.3 238.9L52 242c0 .8 1.6 2.8 1.7 3.5l.1.6h-12s-.3-1.3 1.7-2.8c1.9-1.6 2.6-2.7 2.8-4.7.3-2 6 .3 6 .3z" class="Ax"/><path d="M96.8 123.4c.7 0-1.4 2.5-.5 2.7.9.3 6.9-3 6.9-3l1.9-.3-4.7 3.7c-.3.2 3-2.2 4.8-3 1-.4 1.7-.2 1.9-.3.7-.3-6.1 4.2-6.1 4.2l2.9-.9s1.5-.3.8.5c-.4.5-1.1.6-1.9 1.9s-5.1 4.9-9.3 5.4c-2.1.3-3.6 1.4-3.6 1.4l-12.1 9.9s-7.5-.5-6.4-5.6c1.1-5.2 9-5.4 15.3-7.5 4.2-1.4 4.4-2.5 5.3-3.4.9-.8 2.6-5.8 4.8-5.7zm-25.7-18.6l4.8-.4 1.8 1.4-.3 2.1c-.8 1.8-.3 7-.3 7l-7.6-7.9.5-1.3 1.1-.9z" class="Ap"/><path d="M68.6 105.5l-1.8 1c.7 1.4 1.4 3.1 1.4 5.1 0 .5.4.8.8.9 1.9.1 6.4.6 8.3 2.8-.2-.2-4.6-6.4-8.7-9.8zm8.3-.5c-.2 1.8-.5 6 .4 10.2 0 0 .7-4.8 2.5-7.2.2-.3-.5-.6-.7-.8" fill="#b9dae1"/><g fill="none" stroke="#282828" stroke-width="2.402" class="BD"><path d="M76.6 253.3l33.1 141.8M99.2 253.3l33.1 141.8"/><path d="M100.1 259.3H78m24.6 10.6H80.5m24.6 10.6H82.9m24.7 10.7H85.4m24.6 10.6H87.9m24.6 10.6H90.4M115 323H92.9m24.6 10.6H95.3m24.7 10.6H97.8m24.6 10.7h-22.1m24.6 10.6h-22.1m24.6 10.6h-22.2m24.7 10.6h-22.2M65.3 253.3L32.2 395.1"/><path d="M42.6 253.3L9.5 395.1m32.2-135.8h22.2m-24.6 10.6h22.1m-24.6 10.6h22.1m-24.6 10.7h22.1m-24.6 10.6H54m-24.7 10.6h22.2M26.9 323H49m-24.6 10.6h22.1m-24.6 10.6H44m-24.6 10.7h22.2m-24.7 10.6h22.2m-24.6 10.6h22.1M12 386.7h22.1"/></g><path d="M101.1 253.3H40.7a2.69 2.69 0 0 1-2.7-2.7v-2.3a2.69 2.69 0 0 1 2.7-2.7h60.4a2.69 2.69 0 0 1 2.7 2.7v2.3a2.69 2.69 0 0 1-2.7 2.7z" fill="#e54c3b"/><path d="M660.3 229.8l1.8-24.7s7.3 17.5 5 25.1c-2.2 7.5-6.8-.4-6.8-.4zm57.4 7.6l15.5-18.4s-5.1 18.8-8.9 23.1c-3.9 4.5-6.6-4.7-6.6-4.7z" class="Ap"/><g fill="#f7b68b"><path d="M730.4 222.9s-2.7-3.2-2.4-4.4 1.7-5.4 1.7-5.4l.5-1.1s1.5-.2.6 2.7.3 1.7.3 1.7l1.8-2.3 2.6-2.7 1-1.3s.5-.8.7-.9c.8-.3.7.4.7.4l-3.3 5.4 4.5-4.2s.6-.5 1-.3.2.4.2.4l-4 5.9 2.6-1.9s.6-.5 1-.3.5.3.5.3l-8.9 8.8-1.1-.8z"/><path d="M735.5 215.3l3.3-2.9s.6-.7 1.2-.8c.6-.2.7.3.7.3l-4.6 4.7-.6-1.3zm-72.4-4.9s3.6-2.3 3.7-3.5 0-5.6 0-5.6l-.1-1.1s-1.4-.6-1.3 2.4c.1 2.9-.8 1.5-.8 1.5l-1.1-2.7-1.7-3.2-.6-1.5s-.3-.9-.5-1c-.7-.5-.8.2-.8.2l1.7 6.1-3-5.3s-.5-.6-.9-.5-.3.4-.3.4l2 6.6-1.9-2.6s-.6-.6-.9-.5l-.6.1 5.9 10.8 1.2-.6z"/><path d="M660.3 201.9l-2.4-3.6s-.5-.8-.9-1.1c-.6-.4-.8.1-.8.1l3 5.7 1.1-1.1z"/></g><path d="M681.9 252.2l-12-15.3-.8-5 1.3.1-1.4-4.9-10.1-.3-.7 7.8 1.4.4.1 4.5 2 1.3 7 22.5z" class="Az"/><g class="Ax"><use xlink:href="#O"/><use xlink:href="#O" x="40.3"/></g><g class="Az"><path d="M705.9 254.1l-25.7-4.7s-21.9 9.8-19.4 51.9c0 .2 32 8.6 31.9.6-.1-20.1 13.2-47.8 13.2-47.8z"/><path d="M697.2 256.7l18.1-18.3-.9-.7 5-3.4 10.3 6.2-4.6 6.1-1.4-1.2-2.4-1.7 2.3 2.2-3.7 7.2-5.5 6.5-18.2 16.8z"/></g><path d="M691.5 302.2L708 404.7l-8.3-.7-10.2-34.7-2.2-10.5-12.2-41.1-1.3-17.2z" class="BP"/><path d="M668 400.6l-2-37.7 5.3-20.1 7-27.6-2.1-14.5-15.3-1.5-1.8 10.8-4.8 44.7-1.1 10.9 4.8 35.9z" fill="#164159"/><path d="M688 243.5c-1.3 5.4-1.7 8.3-1.6 8.7.7 2.7 8.4 1.8 8.5.4.1-1.6 2.6-7.7 3.2-8.7.6-.8-9.3-3.6-10.1-.4z" class="Ap"/><path d="M692.9 242.1c1.9.3 3.7.8 4.6 1.3l-2.5 4.1c-1.9 2.7-5 2.9-7 3.1-.5.1-.9 0-1.5 0 .1-1 .6-3 1.5-6.9.3-1.6 2.6-1.8 4.9-1.6z" class="BA"/><path d="M691.4 228.9l-7.6 13.2s-1.8 3.1-.8 4.2 4.5 2.7 6.5 2.3c2-.3 5.1-.5 7-3.1 1.9-2.7 5.5-9.6 5.5-9.6s.3-2.8-4.9-3.7c-5.2-1-5.7-3.3-5.7-3.3z" class="Ap"/><g class="Ax"><path d="M693.7 225.8c-.7-.2-2-.3-2.8.6s-.7 2.9.1 3.6 6.7 3.9 7.7 4c.8.1 2.4.6 3.7-.2.8-.5-.6-3.1-2.1-3.5-4-.7-4-3.8-6.6-4.5z"/><path d="M700.8 233.1l-3.3 5.7-1.3 3.2.7.4 1.3.6s6.6-6.7 5.2-8.7c-1.5-1.7-2.2-1.6-2.6-1.2z"/></g><path d="M696.6 243.1c-.3.5-.1 1.1.5 1.4l.6.3c.6.3 1.2.1 1.5-.4l1.2-2.1c.3-.5.1-1.1-.5-1.4l-.6-.3c-.6-.3-1.2-.1-1.5.4l-1.2 2.1z" class="Ap"/><path d="M687.3 253.5s-14.8 15.2-18.4 35.8c-.3 1.7 1 3.2 1 3.2l3-1.6c0-.1 6.8-22.5 14.4-37.4z" fill="#e54c3b"/><path d="M687.5 253.4l-.5 3.5 8.2-3.6-.2-1zm-1.2-2.2l-2.2 3.6 3.3-1.5z" fill="#b9dae1"/><path d="M794.7 226.6h-.3l-178.3-14.2c-.9-.1-1.7-.5-2.2-1.1s-.8-1.5-.8-2.4l7.8-98c.1-1.7 1.6-3 3.2-3h.3l178.3 14.2c1.8.1 3.1 1.7 3 3.5l-7.8 98c-.1 1.6-1.6 3-3.2 3z" class="Ao"/><path d="M624.2 108.6h.2l178.3 14.2c1.4.1 2.4 1.3 2.3 2.7l-7.8 98c-.1 1.3-1.2 2.3-2.5 2.3h-.2l-178.3-14.2c-1.4-.1-2.4-1.3-2.3-2.7l7.8-98c.1-1.3 1.2-2.3 2.5-2.3m0-1.5c-2.1 0-3.8 1.6-4 3.7l-7.8 98c-.1 1.1.2 2.1.9 2.9s1.6 1.3 2.7 1.4l178.3 14.2h.3c2.1 0 3.8-1.6 4-3.7l7.8-98c.1-1.1-.2-2.1-.9-2.9s-1.6-1.3-2.7-1.4l-178.3-14.2h-.3 0z" class="BC"/><circle cx="734.8" cy="136.4" r="8.7" fill="#dcf4ff"/><path d="M737.1 140c-.4-.4-1.2-1-2.3-1.1-1.1 0 .5 1.9 1.3 2.6.8.6 1.2.5 1.2.5s.3-1.6-.2-2z" fill="#927dd1"/><path d="M739.5 143l-1.7.1c-.2 0-.3-.1-.2-.3l1.1-3.9c.1-.2.3-.4.4-.4l1.7-.1c.2 0 .3.1.2.3l-1.1 3.9c0 .2-.2.4-.4.4z" class="Ar"/><path d="M737.1 141.6c-.9-.7-2.1-2.7-2.1-2.7s-2.9-.5-3.7-.2c0 0-1.5 1.2-1.4 2.5.1 1.1.5 1.7.7 2.9 1.1.6 2.2 1 3.5 1.1 1.2.1 2.3-.1 3.4-.4 0-.1.1-.2.1-.2.3-.8.4-2.3-.5-3z" class="BO"/><path d="M739.5 141.9l-1.5.1.5.6v1h.9s.1-.2-.1-.2-.4-.1-.4-.1.4-.1.6-.2.2-.1.2-.2-.2-.1-.2-.1.3-.2.3-.3v-.3c-.2 0-.2-.3-.3-.3z" class="Ap"/><path d="M731.6 137.1s-2.5-.5-2.4-1.6 1.4-1.4.8-2.3c-.6-1-1.6-1.8.5-2.1s1.1-2.4 2.6-2.2c1.4.2 1.5 1.1 2.9 1.4 1.3.3 3.2-.5 3.7 1.3s.2 3.4-.7 3.4c-.8 0 0 .9.2 1.5.1.6-.7 2.7-3.9.9-3.4-2-2.2-.1-3.7-.3z" class="Av"/><path d="M733 136.5s0 .9-.1 1.5c-.1.7-1.1.5-.1 1.3 1.2.9 2.5 0 2.5 0s-.5-.7-.4-1.5.8-1.4-.2-1.3c-1.1 0-1.7-.6-1.7 0z" class="Ap"/><path d="M733.6 138.3c-.1 0-.6-1.8-.6-1.8 0-.6.7 0 1.6 0 1 0 .3.5.2 1.3-.1.4-.6.6-1.2.5z" class="BA"/><path d="M732.6 131.4s-1.1 2.9-.5 3.9c1.1 2 1.4 2.1 2.5 2.1s2.2-1.3 2.5-2.7c.3-1.3-.4-1.2-1.7-1.7-1.5-.6-1.7-1-1.7-1s.1.6 1 1.1c.1 0-1.7.6-2.1-1.7z" class="Ap"/><path d="M731.1 138.6s-1.3.4-1.6 1.5c-.1.5-.2 1.8-.3 3.1.9.7 1.9 1.3 3 1.6l-1.1-6.2z" fill="#927dd1"/><path d="M738.4 143.8c.2-.1.3-.8.1-1.3-.2-.3-.3-.5-.5-.6-.1 0-.2 0-.3.1-.3.3-1.3 1.6-1.3 1.6s-1.8.7-3 1.4c.2 0 .5.1.7.1.7.1 1.5 0 2.2-.1.2-.2.3-.3.4-.3a9.47 9.47 0 0 1 1.7-.9z" class="Ap"/><circle cx="731.3" cy="179.9" r="8.7" fill="#dcf4ff"/><path d="M731.8 180.5s3-.5 3.8-1.1c.8-.7-.9-1-.3-2.2.8-1.8-1-4.7-1.9-2.7s.1 2.8.1 1.8.7-3.5-2-3.4c-2.8.2-3.7 1.9-1.4 2.8s-2.7-2.4-2.6-.6 1.7 1.6 2.3 1.6-2.2-1.4-1.9.5c.2 1.8 1.8 2.7 3.9 3.3z" class="Ax"/><path d="M734.1 180.5l.4 2.5c.5 1.4 1 3.7-3.3 2.3-.7-.2 1.6-2.3.6-3.5s2.3-1.3 2.3-1.3z" class="As"/><path d="M734.5 180.5s-.6.6 0 2.7c0 0-1.5.6-2.4-.3.1-.3 0-.7-.3-1.1-1-1.2 2.7-1.3 2.7-1.3z" fill="#996e67"/><path d="M729.9 176.4s-.5 1.4-.2 3.6 1.4 2.8 3.2 2.4 2-2.6 1.9-3.1 1.7-.2 1.2-1.4c-.4-1.2-1.2-.7-1.2-.2-.1.5-.3 1.1-.7.8-.4-.4.3-2.3-.6-2-.9.2-2.4.7-3.6-.1z" class="As"/><path d="M727.1 187.5c.4.2.7.4 1.1.5l.3-2.8c-.4.1-1 1.4-1.4 2.3z" fill="#ef7b25"/><path d="M726 185.9l2.2.3c.2 0 .4-.1.4-.3l-.2-4.4c0-.2-.2-.4-.4-.5l-2.2-.3c-.2 0-.4.1-.4.3l.2 4.4c0 .3.1.5.4.5z" class="Ar"/><g class="As"><path d="M727.6 182.2l-1.9-.1s.1.3.3.4-.3.2-.6.1-.3.2 0 .4c.2.2-.1.1-.1.2s-.4 0 .1.2.7.4.7.4l-.9.1s-.1.1.4.3l1.1.5s1-2.2.9-2.5z"/><path d="M729.6 184.6s0 1-.3 1.3-.5.2-1.2-.3c-.7-.6-1.4-1-1.4-1s.2-2.7.9-2.4c.7.4 1.6 1.5 2 2.4z"/></g><path d="M738.2 185.3c-1-.7-3-1.1-3-1.1s-2.4 1.7-4-.1c-.2-.2-2.9 1.7-2.9 1.7l-.3 2.1c.8.3 1.7.6 2.6.6 3.1.3 5.8-1 7.6-3.2z" class="Au"/><path d="M738 185c-1.2-.2-2.3.7-2.4 1.9v.3l-.1.3c1.1-.6 2-1.4 2.8-2.4-.1 0-.2-.1-.3-.1zm-3.3 2.9l-5.2-3.5s-1 .4-1.1 1.2c-.1.5.8 1.8 1.9 3h.3c1.5.1 2.9-.2 4.1-.7z" fill="#ef7b25"/><circle cx="733.1" cy="158.1" r="8.7" fill="#fcd7b6"/><ellipse transform="matrix(.024757 -.9997 .9997 .024757 552.9987 883.3715)" cx="729.3" cy="158.3" rx="1.6" ry="1.2" class="BQ"/><ellipse transform="matrix(.024739 -.9997 .9997 .024739 553.166 883.5375)" cx="729.4" cy="158.3" rx="1.6" ry="1" fill="#666"/><path d="M734.2 159.7h-.1-.3l-.1 1.1s-1.9 1.3-3.4 1c-.7-.2-1.3-.6-1.5-1.8-.1-.6-.2-1.1-.2-1.6 0-.7.2-1.3.4-1.7a5.5 5.5 0 0 1 1.1-1.6s.1 1 .7 1.8c.5.6 1.3 1.2 2.8 1.1h.4s.9-.3 1.1.4c.1.6-.3 1.1-.9 1.3z" class="As"/><path d="M733.6 161.7l.2-1.9c.8 0 1.4-.6 1.2-1.3s-1.1-.4-1.1-.4c-1.7.2-2.6-.4-3.2-1.1-.6-.8-.7-1.8-.7-1.8-.3.3-.8.8-1.1 1.6-.2.5-.3 1.1-.4 1.7h0s-1.3-1-.5-2.9c.3-.7.8-1 1.4-1.1.2-.3.4-.6.7-.7 2.7-1.5 6.4.3 6.2 3.3 0 2.8-2.7 4.6-2.7 4.6z" class="BR"/><path d="M734.3 163.6c-.3-.1-.8-.5-.8-1l.1-1.7s-.4.3-1 .6c-.7.3-1.5.6-2.3.4v.1.1h0c0 .2-.2.5-.6.8h0l-.8 2.1c0 .3 0 .6.1.8.9.5 1.8.8 2.9.9 1.2-1.8 2.7-3.1 2.7-3.1s-.2.1-.3 0z" class="As"/><path d="M734.9 154.3s1.7-2.6 3.2-1 .7 3.1-.1 3.5-2.7.2-2.7.2l-.4-2.7z" class="BR"/><path d="M732.7 161.5s-.9.8-2.3.7v-.1-.1c0-.1.9.2 2.3-.5-.1 0-.1 0 0 0z" fill="#996e67"/><path d="M734.1 159.8z" fill="#ffbfa4"/><use xlink:href="#P" class="BA"/><path d="M735.1 154.1s1.6 1.1 1.4 3c0 0 .5-2-1.4-3z" class="BE"/><linearGradient id="A" gradientUnits="userSpaceOnUse" x1="619.69" y1="1132.889" x2="621.14" y2="1132.889" gradientTransform="matrix(-1.0874 -0.2083 -0.1889 0.982 1622.575 -824.8325)"><stop offset="0" stop-color="#ffd0ce"/><stop offset="1" stop-color="#f4aaa7"/></linearGradient><path d="M733.8 157.7h.3c.4.1.7.5.6.9s-.5.7-.9.6c-.1 0-.2-.1-.3-.1l.3-1.4z" fill="url(#A)"/><path d="M729.9 154c.5-.3 1.6-1.3 2.7-1 2 .6 2 3.7 2 3.9h-.4s0-3-1.7-3.6c-.8-.3-1.5.3-1.9.4 0 0-.7.3-.7.3z" fill="#ffda00"/><path d="M730.5 160.8h.6c.1 0 .2.1.2.2.7 0 1.4-.3 1.8-.9l.5-.8.2.1-.5.8c-.5.6-1.2 1-2 1 0 .1-.2.2-.3.2h-.6c-.2 0-.3-.1-.3-.3v-.1c.1-.1.2-.2.4-.2z" class="BQ"/><path d="M734.1 159.8z" fill="#ffbfa4"/><use xlink:href="#P" class="BA"/><ellipse transform="matrix(.1865 -.9825 .9825 .1865 441.958 850.3304)" cx="734.4" cy="158.3" rx="1.6" ry="1.2" fill="#666"/><ellipse transform="matrix(.1863 -.9825 .9825 .1863 442.1416 850.5472)" cx="734.6" cy="158.3" rx="1.6" ry="1" class="BQ"/><ellipse transform="matrix(.1865 -.9825 .9825 .1865 442.137 850.655)" cx="734.7" cy="158.4" rx="1.2" ry=".9" fill="#ffc200"/><ellipse transform="matrix(.1863 -.9825 .9825 .1863 442.3438 850.905)" cx="734.9" cy="158.4" rx="1.2" ry=".8" fill="#ffda00"/><path d="M735.2 163.7l-.7-.3-.4-.1-.4-.2s-.1 0-.1.1c-.7.5-1.4.6-2 .6h-.1 0c-1.1-.2-1.4-1-1.4-1l-.4.1-.2.1h0-.1l-.9.3h0l-2.1.6c1.5 1.7 3.6 2.9 6 3.1 1.7.1 3.4-.2 4.8-1l.4-1.3-2.4-1z" class="BE"/><path d="M731.9 153.2s-1.2.1-1.9.6.3.6.3.6l.8-.3.6-.5.2-.4z" class="BR"/><path d="M728.5 163.1h0l-.4 2.2s.1 0 .1.1l.6.1-.3.1c.4.3.9.5 1.3.7l-.5-3.4-.8.2zm5.3 3l.7.1.6-2.4-.7-.3c-1.1 1-1.9 2.2-2.6 3.4h.4 1.6c.4-.1.6-.2.6-.2l-.6-.6z" fill="#097dd3"/><path d="M734.1 163.3l-.4-.2c-.7.5-1.4.6-2 .6h-.1 0c-1.1-.2-1.4-1-1.4-1l-.4.1-.2.1h-.1l.5 3.4c.7.3 1.4.5 2.2.6.6-1.2 1.5-2.4 2.6-3.4l-.7-.2z" fill="#95d1fc"/><path d="M737.7 164.6l-.4 1.3c.2-.1.5-.3.7-.4l-.3-.9z" fill="#097dd3"/><circle cx="729.6" cy="201.6" r="8.7" fill="#f9e6b9"/><path d="M728.6 195.6s-2.5 3.8-2 9.6c0 0 1.2 1 3.3.3 0 0-.5-4.3-.2-5.3-.1-.1-.6-3.2-1.1-4.6z" class="Au"/><path d="M728.1 197.1s-1 3.3-.9 4.3c.1 1.5.2 3.5.7 4.2 0 0 1.6.1 2-.2s-.1-8.6-.5-8.7c-.5-.1-1.3.4-1.3.4z" fill="#e27b1e"/><path d="M732.8 209.2l.6-1.2v-.1c.3-.6.5-1.1.5-1.3v-.1c0-.3-.3-.7-.6-1l-.2-.2-.8-.8c-.9.4-3.1.1-3.1.1s-3.1 1.9-3.6 2.7c-.5.9.3 1.9.3 1.9v.1a10.24 10.24 0 0 0 3 .8c1.2.1 2.5-.1 3.6-.5.1-.1.1-.3.2-.4 0 .2.1.1.1 0z" class="Ay"/><path d="M733.374 204.958l-3.987-.318.35-4.386 3.987.318z" fill="#d8721e"/><path d="M729.7 202.4l-.1 2.4c-.8 1.1 2.5.3 2.5.3v-.8c0-.6.1-1.1.1-1.3l-2.5-.6z" class="Ap"/><path d="M729.7 202.4v.3.6.7c.5.4 2.1-.3 2.5-.8l.2-1.2-2.7.4z" class="BA"/><path d="M733.1 198.6s-.4 2.9-.8 3.7c-.4.7-2 1.7-2.8 1.6s-1.7-2-1.8-2.6.2-2.7.3-3.2.6-1.7.9-1.9c.2-.2 3.8.4 4.2 2.4z" class="Ap"/><path d="M732.7 198.3c-.4 1.1-.2 2.2-.2 2.2.3-.2.9-.1.9-.1s2-1.7 1.3-3.3a3.27 3.27 0 0 0-1.1-1.4c-1.3-.9-2.9-.3-2.9-.3-2.8-1.1-3.4 2.9-3.4 2.9 2.3-1.9 5.4 0 5.4 0z" class="Au"/><path d="M732.9 205.7s.3-.2.5 0c.1.1-.3-.6-.3-.6l-.3-.1v.4l.1.3z" fill="#554e5b"/><path d="M731.4 205.8c2.3 1.1 3.8.3 3.8.3 1.4-5.5-.4-8.7-.5-8.9-.9 1.3-2.1 3.4-2.1 3.4 0 1-1.2 5.2-1.2 5.2z" fill="#e27b1e"/><path d="M732.5 206.5c-.6.7-1.2 2.2-1.7 3.7.6-.1 1.1-.2 1.6-.4a.76.76 0 0 0 .2-.4c-.1.2 1-2.6-.1-2.9z" fill="#42ba98"/><path d="M729.5 204.8s-.3.4.1.5c.3.1 1.8-.1 1.8-.1s-2.1.6-2.9 1.6c0 0 .1-1.3 1-2z" class="Ap"/><g fill="#42ba98"><path d="M729.5 204.8s-.2-.1-.3 0c0 0-1.1.6-1.5 1.7l.2.2-.3.1s-.1.3-.2.8l1-.7c.1-.1.3-1.5 1.1-2.1z"/><path d="M728.5 206.8l.2 1s.6-.7 1.1-.9l-.1-.3.2.2s1.5-1.4 2.4-1.4l-.2-.4c0 0-2.2.2-3.6 1.8z"/></g><path d="M733.2 205.9c-1.5.3-.8 3.7-.8 3.7s0 .1.1.2c.9-.3 1.8-.8 2.6-1.4-.6-2-1.4-2.7-1.9-2.5z" class="Ay"/><path d="M731.4 205.8c2.3 1.1 3.8.3 3.8.3 1.4-5.5-.4-8.7-.5-8.9-.5 2.3-2.1 3.4-2.1 3.4 0 1-1.2 5.2-1.2 5.2z" class="Au"/><path d="M732.4 200.3c.3-.2 1-.1 1.1.3.1.5-.9 1.5-1.4.8-.1-.2.1-.9.3-1.1z" class="Ap"/><path d="M724 207.4l1.7.2c.2 0 .3-.1.3-.3l-.9-4c0-.2-.2-.4-.4-.4l-1.7-.2c-.2 0-.3.1-.3.3l.9 4c0 .2.2.4.4.4z" class="Ar"/><g class="Ap"><path d="M723.9 206.3l1.5.3-.5.5-.2 1-.8-.2s-.1-.2.1-.2h.4s-.4-.2-.5-.3c-.2-.1-.2-.2-.1-.2 0-.1.2-.1.2-.1s-.3-.2-.3-.3 0-.2.1-.3c0 0 0-.2.1-.2z"/><path d="M724.8 208.4c-.2-.1-.2-.9.1-1.2.2-.3.4-.5.5-.5s.2 0 .2.1c.2.3 1 1.8 1 1.8l2.8 1.8h-.7c-.7-.1-1.5-.2-2.1-.4l-.4-.4c-.3-.5-1.2-1.1-1.4-1.2z"/></g><path d="M747.361 134.525l14.254 1.137-.127 1.595-14.254-1.137zm-.248 4.079l45.055 3.593-.127 1.595-45.055-3.593zm-1.451 17.623l14.254 1.137-.127 1.595-14.254-1.137zm-.355 4.17l45.055 3.593-.127 1.595-45.055-3.593zm-3.149 39.325l14.254 1.137-.127 1.595-14.254-1.137zm-.247 4.079l45.055 3.593-.127 1.595-45.055-3.593zm2.053-25.872l14.254 1.137-.127 1.595-14.254-1.137zm-.355 4.17l45.055 3.593-.127 1.595-45.055-3.593zm-117.664 20.015l6.566-82.336 2.592.207-6.566 82.336z" class="At"/><path d="M714.8 134.5L633 128m76.8 69.1l-81.8-6.5m82.8-6l-81.8-6.5m82.8-6l-81.8-6.6m82.8-6L631 153m82.8-6l-81.8-6.5" stroke="#e0e0e0" fill="none" stroke-width=".712" class="BD"/><path d="M625.912 202.12l.207-2.592 82.336 6.574-.207 2.592z" class="At"/><path d="M636 137.4l.1-1.4" fill="#c4c4c4"/><g fill="none" stroke="#aaa0a4" stroke-width="1.443" class="BD"><path d="M638.1 180.8l1-.8"/><path d="M640.8 178.4l12.8-11.6" stroke-dasharray="2.309,2.309"/><path d="M654.5 166.1l.9-.9.9 1"/><path d="M657.9 168l12.2 14.1" stroke-dasharray="2.4833,2.4833"/><path d="M670.9 183.1l.8.9.6-1.1"/><path d="M673.3 180.7l12.3-25.4 22.3-12.2" stroke-dasharray="2.4927,2.4927"/><path d="M709 142.5l1.1-.6"/></g><circle cx="685.5" cy="155.4" r="3.7" fill="#8dc63f"/><circle cx="685.5" cy="155.4" r="2" class="Ao"/><circle cx="637.9" cy="180.8" r="3.7" class="BF"/><circle cx="637.9" cy="180.8" r="2" class="Ao"/><circle cx="655.4" cy="165" r="3.7" class="Au"/><circle cx="655.4" cy="165" r="2" class="Ao"/><circle cx="671.7" cy="183.9" r="3.7" class="Av"/><circle cx="671.7" cy="183.9" r="2" class="Ao"/><circle cx="710" cy="141.9" r="3.7" class="BE"/><circle cx="710" cy="141.9" r="2" class="Ao"/><defs ><path id="C" d="M372.2 82.1c-.8 0-1.4-.2-1.8-.7-.4-.4-.7-1.1-.7-1.9s.2-1.4.6-1.9 1-.7 1.7-.7 1.2.2 1.5.6c.4.4.6.9.6 1.6v.6h-3.3c0 .5.1.8.4 1.1.2.3.6.4 1 .4.3 0 .6 0 .8-.1s.5-.1.8-.3v.9l-.8.3c-.2.1-.5.1-.8.1zm-.2-4.3c-.3 0-.6.1-.8.3s-.3.5-.4.9h2.2c0-.4-.1-.7-.3-.9-.1-.2-.4-.3-.7-.3z"/><path id="D" d="M379.3 82l-.6-2.3c-.1-.2-.2-.8-.4-1.7h0l-.4 1.7-.7 2.3H376l-1.4-4.9h1.1l.6 2.4.3 1.5h0c0-.2.1-.5.1-.7s.1-.5.2-.6l.8-2.6h1.2l.7 2.6c0 .1.1.4.2.7s.1.5.1.7h0c0-.4.1-.9.3-1.5l.6-2.4h1.1l-1.4 4.9h-1.2z"/><path id="E" d="M399 80.6c0 .5-.2.9-.5 1.1-.4.3-.9.4-1.5.4-.7 0-1.2-.1-1.6-.3v-.9c.6.3 1.1.4 1.6.4.6 0 1-.2 1-.6 0-.1 0-.2-.1-.3s-.2-.2-.4-.3-.4-.2-.7-.3c-.6-.2-1-.4-1.2-.7-.2-.2-.3-.5-.3-.9s.2-.8.5-1 .8-.4 1.4-.4a3.53 3.53 0 0 1 1.7.4l-.3.8c-.5-.2-1-.3-1.3-.3-.6 0-.8.2-.8.5 0 .2.1.3.2.4s.5.3.9.4l.9.4c.2.1.3.3.4.5 0 .2.1.4.1.7z"/><path id="F" d="M600.3 88l4.5-3 2.6 4.4s4.3-10 9.3-11.7c0 0-.9 5 .3 5.8 0 0-4.4 2.5-9.4 10.3 0 .1-4.9-5.1-7.3-5.8z"/><path id="G" d="M307 123.9h3.1v-3.1H307v3.1zm.9-2.2h1.4v1.4h-1.4v-1.4z"/><path id="H" d="M333.7 113.8h1.9c.9 0 1.6.1 2 .4s.6.7.6 1.2a1.69 1.69 0 0 1-.3 1c-.2.3-.5.4-.8.5h0c.5.1.8.3 1 .5a1.69 1.69 0 0 1 .3 1c0 .6-.2 1-.6 1.4-.4.3-1 .5-1.7.5h-2.4v-6.5zm1.1 2.7h1c.4 0 .8-.1 1-.2s.3-.4.3-.7-.1-.5-.3-.7c-.2-.1-.6-.2-1.1-.2h-.9v1.8zm0 .9v2.1h1.1c.4 0 .8-.1 1-.3s.3-.4.3-.8c0-.3-.1-.6-.3-.8s-.6-.2-1.1-.2h-1z"/><path id="I" d="M342.2 115.3h.5l-.1 1c-.1 0-.3-.1-.5-.1-.4 0-.8.1-1 .4-.3.3-.4.6-.4 1.1v2.6h-1.1v-4.9h.8l.1.9h.1c.2-.3.4-.5.6-.7.4-.2.7-.3 1-.3z"/><path id="J" d="M353.3 120.4h-1.1v-3c0-.4-.1-.7-.2-.9-.2-.2-.4-.3-.7-.3-.4 0-.8.1-1 .4s-.3.7-.3 1.3v2.5h-1.1v-4.9h.8l.1.6h.1c.1-.2.4-.4.6-.5.3-.1.6-.2.9-.2 1.2 0 1.8.6 1.8 1.8v3.2z"/><path id="K" d="M368.4 120.4h-1.3l-3.2-5.2h0v.3c0 .6.1 1.1.1 1.5v3.4h-1v-6.5h1.3l3.2 5.2h0v-.7-1-3.4h1v6.4z"/><path id="L" d="M573.3 256.3c.3 0 .5 0 .8-.1v.8c-.1.1-.3.1-.4.1s-.4.1-.6.1c-1 0-1.5-.5-1.5-1.6v-2.7h-.7v-.5l.7-.4.4-1h.6v1.1h1.4v.8h-1.4v2.6c0 .3.1.4.2.6.1.1.3.2.5.2z"/><path id="M" d="M522 301.1h-4.5v-7.9h4.5v1.1h-3.2v2.2h3v1.1h-3v2.5h3.2v1z"/><path id="N" d="M582.6 229.3c0 2.7-.4 4.7-1.3 6s-2.1 2-3.9 2c-1.7 0-2.9-.7-3.8-2-.9-1.4-1.3-3.3-1.3-5.9 0-2.7.4-4.7 1.3-6 .8-1.3 2.1-2 3.8-2s3 .7 3.8 2 1.4 3.3 1.4 5.9zm-8.4 0c0 2.2.3 3.9.8 4.9s1.4 1.5 2.5 1.5c1.2 0 2-.5 2.5-1.6.5-1 .8-2.7.8-4.9s-.3-3.9-.8-4.9-1.4-1.6-2.5-1.6c-1.2 0-2 .5-2.5 1.5s-.8 2.8-.8 5.1z"/><path id="O" d="M666.5 400l.8 2.1.3 2.3-.6 3.5h-2l-1.5-.6-1.1.6s-5.8.3-7.9 0c-3.5-.4-5.4-1-6-1.8-.4-.5 1.4-.9 1.9-.9 3.2 0 6.7-1.5 6.7-1.5l3-2.4.8-1.8 5.6.5z"/><path id="P" d="M734.2 159.7c.5-.2.9-1.1.4-1.4-.5-.2-1.1-.2-1.1-.2h.4s.9-.3 1.1.4c.2.5-.2 1-.8 1.2z"/></defs></svg>